<?xml version="1.0" encoding="UTF-8"?>
<svg version="1.1" xmlns="http://www.w3.org/2000/svg" width="1024" height="1024">
<path d="M0 0 C0.804375 0.24363281 0.804375 0.24363281 1.625 0.4921875 C4.46667646 1.0997828 7.09488707 1.13226278 10 1.125 C11.03125 1.12757813 12.0625 1.13015625 13.125 1.1328125 C15.59657009 1.01863671 17.6442958 0.71350656 20 0 C20 0.33 20 0.66 20 1 C21.31751188 0.99907821 22.63502377 0.99815641 23.99246025 0.99720669 C55.24048242 0.97556685 86.48850262 0.95906852 117.73653053 0.94893467 C121.57939928 0.94768391 125.422268 0.94638959 129.26513672 0.94506836 C130.41274586 0.94467489 130.41274586 0.94467489 131.58353902 0.94427348 C143.98498809 0.9399176 156.38643253 0.9320305 168.78787886 0.9228472 C181.50504778 0.91350838 194.22221428 0.9079439 206.93938649 0.90591151 C214.79179666 0.90453676 222.64419377 0.90018874 230.49659993 0.89208353 C236.50940769 0.88619185 242.52220413 0.88554162 248.53501511 0.88689232 C251.00783875 0.88661598 253.48066287 0.88461077 255.95348358 0.88079453 C259.3159213 0.87585755 262.67830207 0.87700176 266.04074097 0.87974548 C267.52612659 0.87537622 267.52612659 0.87537622 269.04152 0.87091869 C270.38511705 0.87390526 270.38511705 0.87390526 271.75585747 0.87695217 C272.53276526 0.87657245 273.30967306 0.87619273 274.11012352 0.8758015 C276 1 276 1 278 2 C278.33 1.34 278.66 0.68 279 0 C279 0.66 279 1.32 279 2 C279.5377002 1.91403564 280.07540039 1.82807129 280.62939453 1.73950195 C288.78757274 0.66341296 296.73159933 1.39298822 304.875 2.1875 C305.97164978 2.29161194 305.97164978 2.29161194 307.0904541 2.39782715 C338.21577535 5.3850555 368.97318487 13.22743335 394 33 C394.83402344 33.64582031 395.66804687 34.29164063 396.52734375 34.95703125 C399.04707497 36.9387146 401.53044818 38.95623298 404 41 C404.71285156 41.5878125 405.42570313 42.175625 406.16015625 42.78125 C410.92390048 46.81987709 414.99075277 51.22302457 419 56 C419.67059448 56.76147339 419.67059448 56.76147339 420.35473633 57.53833008 C426.22605293 64.24151894 431.09401931 71.57620463 436 79 C436.64324219 79.96808594 437.28648437 80.93617188 437.94921875 81.93359375 C448.78082677 99.32981269 459.1408535 124.20136315 458 145 C458.66 145 459.32 145 460 145 C460.06875904 197.85921832 460.12157589 250.7184321 460.15319599 303.5776864 C460.15694783 309.82693749 460.16083083 316.07618849 460.16479492 322.32543945 C460.16558185 323.56948329 460.16636878 324.81352712 460.16717956 326.09526926 C460.18021156 346.20357532 460.20385319 366.3118555 460.23145839 386.42014623 C460.25957408 407.07349233 460.27618926 427.72682492 460.28226548 448.38018936 C460.28636917 461.11076334 460.29930128 473.84126411 460.3237494 486.57181554 C460.33968278 495.3173654 460.34438326 504.06287775 460.34050413 512.80844105 C460.33859435 517.84412811 460.34139328 522.87968781 460.35761642 527.91535187 C460.43478221 553.13596656 460.18946518 577.58685206 453 602 C452.64164063 603.2375 452.28328125 604.475 451.9140625 605.75 C449.12469395 614.73588526 445.34904418 622.90920121 440.94921875 631.203125 C440.10408763 632.80296169 439.2845659 634.41626751 438.46875 636.03125 C426.9194524 658.35989203 407.87680299 677.31595441 387 691 C386.04746338 691.62455078 386.04746338 691.62455078 385.07568359 692.26171875 C366.76331025 704.06151322 347.3208811 710.93229775 326 715 C323.19779599 715.53730676 320.71087409 716.0963753 318 717 C316.32546463 717.10139374 314.64724035 717.14624803 312.96968079 717.15821838 C311.93061584 717.1680072 310.8915509 717.17779602 309.82099915 717.18788147 C308.68164413 717.19363693 307.54228912 717.1993924 306.3684082 717.20532227 C305.16828094 717.21522186 303.96815369 717.22512146 302.73165894 717.23532104 C299.44062453 717.26151383 296.14961445 717.28337379 292.85853982 717.30332303 C289.41919104 717.32519039 285.97988634 717.35257541 282.54057312 717.37937927 C276.02770076 717.42929601 269.51480392 717.47423862 263.00188369 717.51740164 C255.58717402 717.56678272 248.17250859 717.62169762 240.75784171 717.67708123 C225.50526868 717.79088563 210.25265498 717.89772803 195 718 C195 718.33 195 718.66 195 719 C192.69 719 190.38 719 188 719 C188 718.67 188 718.34 188 718 C160.94 718 133.88 718 106 718 C106 718.33 106 718.66 106 719 C104.02 719 102.04 719 100 719 C100 718.34 100 717.68 100 717 C97.04081802 717.11358476 94.08323217 717.24033086 91.125 717.375 C90.28324219 717.4059375 89.44148438 717.436875 88.57421875 717.46875 C87.36572266 717.52675781 87.36572266 717.52675781 86.1328125 717.5859375 C85.38918457 717.6173584 84.64555664 717.6487793 83.87939453 717.68115234 C81.75989026 717.85419551 81.75989026 717.85419551 80 720 C77.9765625 720.01171875 77.9765625 720.01171875 75.625 719.6875 C74.46871094 719.53861328 74.46871094 719.53861328 73.2890625 719.38671875 C71 719 71 719 69.12744141 718.48193359 C66.89936741 717.9772035 64.95343165 717.88604692 62.671875 717.90234375 C61.87265625 717.90556641 61.0734375 717.90878906 60.25 717.91210938 C59.425 717.92048828 58.6 717.92886719 57.75 717.9375 C56.48929687 717.94426758 56.48929687 717.94426758 55.203125 717.95117188 C53.13538599 717.96292039 51.06768376 717.98085478 49 718 C49 718.33 49 718.66 49 719 C36.66666667 719 24.33333333 719 12 719 C12 718.67 12 718.34 12 718 C8.37 718 4.74 718 1 718 C1 718.33 1 718.66 1 719 C-2.3 719 -5.6 719 -9 719 C-9 718.67 -9 718.34 -9 718 C-11.97 718 -14.94 718 -18 718 C-18 718.33 -18 718.66 -18 719 C-19.77049689 719.05410687 -21.54146849 719.09284119 -23.3125 719.125 C-24.29863281 719.14820313 -25.28476562 719.17140625 -26.30078125 719.1953125 C-29 719 -29 719 -32 717 C-32.33 717.66 -32.66 718.32 -33 719 C-33 718.34 -33 717.68 -33 717 C-33.87100342 717.03029297 -34.74200684 717.06058594 -35.6394043 717.09179688 C-38.93638604 717.20538798 -42.23342438 717.31695534 -45.53051758 717.42724609 C-46.94525779 717.47496455 -48.35997268 717.52344097 -49.7746582 717.57275391 C-58.85205132 717.88854536 -67.91577165 718.07033707 -77 718 C-77 718.33 -77 718.66 -77 719 C-79.31 719 -81.62 719 -84 719 C-84 718.67 -84 718.34 -84 718 C-84.93960571 717.91081299 -84.93960571 717.91081299 -85.89819336 717.81982422 C-109.35001582 715.50973994 -131.68738613 711.3574404 -153 701 C-154.03205566 700.50064941 -154.03205566 700.50064941 -155.08496094 699.99121094 C-167.57489236 693.85127828 -178.22969085 685.74857876 -189 677 C-189.87269531 676.30648437 -190.74539062 675.61296875 -191.64453125 674.8984375 C-193.93950557 673.0487567 -196.0278528 671.19127466 -198 669 C-198 668.34 -198 667.68 -198 667 C-198.66 667 -199.32 667 -200 667 C-203.25724086 663.55663109 -206.09377517 659.74113882 -209 656 C-209.44617676 655.43265137 -209.89235352 654.86530273 -210.35205078 654.28076172 C-234 624.027899 -234 624.027899 -234 609 C-234.66 608.67 -235.32 608.34 -236 608 C-237.33350067 603.55499776 -238.29175731 599.6681169 -238 595 C-238.66 594.67 -239.32 594.34 -240 594 C-240.48657227 592.02563477 -240.48657227 592.02563477 -240.81640625 589.44140625 C-241.00299805 588.02504883 -241.00299805 588.02504883 -241.19335938 586.58007812 C-241.31517578 585.58427734 -241.43699219 584.58847656 -241.5625 583.5625 C-241.68818359 582.60150391 -241.81386719 581.64050781 -241.94335938 580.65039062 C-242.31454218 577.76837965 -242.67146254 574.88722226 -243 572 C-243.12310315 571.05269237 -243.12310315 571.05269237 -243.24869323 570.08624721 C-244.21158748 561.90321449 -244.14555677 553.71981292 -244.14044189 545.49420166 C-244.14302922 543.82245591 -244.14604339 542.15071077 -244.1494453 540.47896647 C-244.15747573 535.90358981 -244.15930265 531.32822888 -244.16004276 526.752846 C-244.16190029 521.81049194 -244.16945122 516.8681459 -244.17617798 511.92579651 C-244.1897347 501.12567028 -244.19578215 490.32554778 -244.20018864 479.52541447 C-244.20295614 472.77354161 -244.20719446 466.02167017 -244.21169281 459.26979828 C-244.22388308 440.55317398 -244.23418217 421.83655082 -244.2375679 403.11992264 C-244.23778747 401.92299043 -244.23800703 400.72605823 -244.23823325 399.49285536 C-244.23845153 398.29315263 -244.23866981 397.0934499 -244.2388947 395.85739255 C-244.23933816 393.4265755 -244.23978472 390.99575845 -244.24023438 388.56494141 C-244.2404558 387.35918704 -244.24067723 386.15343267 -244.24090537 384.91114029 C-244.24484937 365.39447803 -244.26229231 345.87785319 -244.2855939 326.36120537 C-244.30935809 306.29402086 -244.32177209 286.22685509 -244.32293582 266.15965629 C-244.32384985 254.90479985 -244.32953314 243.64999217 -244.34775543 232.39514923 C-244.36322511 222.80701269 -244.36823671 213.21893996 -244.36001733 203.6307933 C-244.35613471 198.74705762 -244.35692219 193.86345016 -244.37107468 188.97973061 C-244.49344904 144.1005517 -238.84415587 102.8277427 -211 66 C-210.32839844 65.10539062 -209.65679687 64.21078125 -208.96484375 63.2890625 C-198.09964284 49.43846993 -184.57872213 35.51708684 -169 27 C-168.34 27 -167.68 27 -167 27 C-167 26.34 -167 25.68 -167 25 C-132.41231207 7.31111899 -99.39394336 1.78013346 -60.83984375 1.90234375 C-59.07052145 1.90421523 -57.30119862 1.90563567 -55.53187561 1.90663147 C-50.93714904 1.91039932 -46.34245548 1.9201786 -41.7477417 1.93133545 C-37.0343063 1.94167485 -32.32086542 1.94615557 -27.60742188 1.95117188 C-18.40493363 1.9618077 -9.20246959 1.97881265 0 2 C0 1.34 0 0.68 0 0 Z M15 717 C15 717.33 15 717.66 15 718 C16.65 718 18.3 718 20 718 C20 717.67 20 717.34 20 717 C18.35 717 16.7 717 15 717 Z " fill="#ED99BD" transform="translate(404,152)"/>
<path d="M0 0 C0.8164801 0.00248749 1.63296021 0.00497498 2.47418213 0.00753784 C30.02443075 0.13727249 55.12614136 5.91583451 79.875 18.3125 C80.61556641 18.68213867 81.35613281 19.05177734 82.11914062 19.43261719 C124.29426297 40.84655506 155.07081196 78.76566371 170.0625 123.375 C173.34494257 133.57023301 175.70078481 143.67117485 176.875 154.3125 C177.01204346 155.46903076 177.01204346 155.46903076 177.15185547 156.64892578 C177.83892895 162.80119182 178.03229268 168.87489416 178 175.0625 C177.99589111 176.02551025 177.99178223 176.98852051 177.98754883 177.98071289 C177.64615448 221.79298701 160.86663707 266.35782672 129.609375 297.671875 C128.3672702 298.88816664 127.12280995 300.10206206 125.875 301.3125 C125.029375 302.158125 124.18375 303.00375 123.3125 303.875 C122.508125 304.679375 121.70375 305.48375 120.875 306.3125 C120.37524658 306.82965576 119.87549316 307.34681152 119.3605957 307.87963867 C90.18292309 337.76762124 46.00142567 353.95174757 4.73266602 354.63232422 C1.52466449 354.62286016 -1.6747931 354.54158244 -4.87988281 354.40673828 C-7.06329599 354.31509001 -9.24493116 354.26242556 -11.4296875 354.21484375 C-34.97436011 353.49442261 -58.01244441 346.49709698 -79.125 336.3125 C-79.74294434 336.01649902 -80.36088867 335.72049805 -80.99755859 335.41552734 C-96.50509642 327.87165021 -110.31846297 317.86415483 -122.60742188 305.79492188 C-124.11038818 304.32677332 -125.63783624 302.88870171 -127.171875 301.453125 C-156.42979057 273.68762288 -172.34412875 234.80160293 -177.125 195.3125 C-177.25777344 194.23613281 -177.39054687 193.15976562 -177.52734375 192.05078125 C-177.82432356 189.13386996 -178.00490009 186.24220995 -178.125 183.3125 C-178.15223145 182.65556152 -178.17946289 181.99862305 -178.20751953 181.32177734 C-178.94503651 160.56461701 -175.5826182 141.00439891 -169.125 121.3125 C-168.89441895 120.59900391 -168.66383789 119.88550781 -168.42626953 119.15039062 C-155.03895712 78.51207119 -124.97853593 44.36535825 -88.125 23.3125 C-87.54959473 22.9829834 -86.97418945 22.6534668 -86.38134766 22.31396484 C-59.57779592 7.10467674 -30.81312579 -0.15009573 0 0 Z " fill="#E778A8" transform="translate(512.125,306.6875)"/>
<path d="M0 0 C0.91233398 0.26683594 1.82466797 0.53367188 2.76464844 0.80859375 C37.68388824 11.2606111 69.84736175 29.88228474 96.51953125 54.70703125 C98.63509748 56.66268066 100.79243291 58.52565881 103 60.375 C128.15911553 82.35720074 146.3588205 113.48198083 159 144 C159.27295898 144.64582031 159.54591797 145.29164063 159.82714844 145.95703125 C170.08909485 170.46392923 175.46567164 198.48011632 176 225 C176.02046387 225.80405273 176.04092773 226.60810547 176.06201172 227.43652344 C176.91297492 265.14614895 170.15672935 302.3938768 155 337 C154.65598145 337.7950293 154.31196289 338.59005859 153.95751953 339.40917969 C145.75196886 358.17674687 134.70309938 374.98173314 122 391 C121.55865723 391.55848633 121.11731445 392.11697266 120.66259766 392.69238281 C109.95449397 406.10869912 97.69236993 418.63563665 84 429 C83.46117187 429.41523926 82.92234375 429.83047852 82.3671875 430.25830078 C67.58386475 441.62339447 51.83478019 451.01497858 35 459 C34.11957031 459.43570312 33.23914063 459.87140625 32.33203125 460.3203125 C-23.45426355 487.10482924 -92.33218897 488.1504305 -150.44873047 468.46386719 C-162.32123014 464.23009413 -174.16030197 458.98038295 -185.02734375 452.58203125 C-187.89791841 451.73506962 -189.29791982 452.77453735 -192 454 C-193.96769453 455.07223744 -195.91541459 456.1815243 -197.84765625 457.31640625 C-198.40779922 457.64447266 -198.9679422 457.97253906 -199.5450592 458.31054688 C-201.38643917 459.39078191 -203.22456748 460.47641128 -205.0625 461.5625 C-206.36242921 462.32745756 -207.66239731 463.09234904 -208.96240234 463.85717773 C-217.72594125 469.02249976 -226.43680422 474.27168263 -235.125 479.5625 C-236.27304486 480.26060844 -237.42115685 480.95860649 -238.56933594 481.65649414 C-239.1384671 482.00248154 -239.70759827 482.34846893 -240.29397583 482.7049408 C-241.44276557 483.40329029 -242.59158954 484.1015835 -243.740448 484.79981995 C-246.74129618 486.6242296 -249.74004617 488.45196884 -252.73583984 490.28466797 C-255.82929359 492.17588629 -258.93005274 494.05459748 -262.03582764 495.92550659 C-263.76537257 496.97149834 -265.48754157 498.02965578 -267.20947266 499.08813477 C-277.21276856 505.09271933 -277.21276856 505.09271933 -283 505 C-286 503.25 -286 503.25 -288 500 C-288.26480117 492.08832589 -286.05743054 484.18751126 -284.15625 476.57421875 C-283.87084854 475.40391113 -283.58544708 474.23360352 -283.29139709 473.02783203 C-282.68209102 470.53312309 -282.06925733 468.03927347 -281.45315552 465.54623413 C-280.49209517 461.65549825 -279.54104845 457.76245062 -278.59350586 453.8684082 C-276.47116589 445.1530312 -274.33574852 436.44087788 -272.19708252 427.72949219 C-270.83759071 422.1899998 -269.48539063 416.6488902 -268.1484375 411.10391235 C-267.57443985 408.73674005 -266.98858874 406.37270845 -266.40234375 404.00854492 C-266.06050931 402.59310232 -265.71931917 401.1775039 -265.37890625 399.76171875 C-265.0857251 398.56506592 -264.79254395 397.36841309 -264.49047852 396.13549805 C-263.99632806 392.97652627 -264.02764102 391.02536976 -265 388 C-266.71184851 385.69234683 -268.44218275 383.5450924 -270.3125 381.375 C-281.24535738 368.17738505 -289.81777268 353.52395475 -297 338 C-297.76183594 336.40285156 -297.76183594 336.40285156 -298.5390625 334.7734375 C-318.86020816 290.11038474 -324.76815562 235.94727694 -314 188 C-313.71914551 186.68636475 -313.71914551 186.68636475 -313.43261719 185.34619141 C-312.16500795 179.49964484 -310.67450919 173.7426561 -309 168 C-308.63914307 166.75887451 -308.63914307 166.75887451 -308.27099609 165.49267578 C-301.79644017 143.73733512 -292.15711014 122.64740052 -279.75 103.625 C-279.27747803 102.89949951 -278.80495605 102.17399902 -278.31811523 101.42651367 C-273.87141977 94.67890752 -269.10781018 88.25889307 -264 82 C-263.56139648 81.45843262 -263.12279297 80.91686523 -262.67089844 80.35888672 C-250.85727226 65.87262817 -237.77834712 52.28970282 -222.67089844 41.2265625 C-221.01828746 40.01342434 -219.38775631 38.77461088 -217.7578125 37.53125 C-182.51542077 11.06543845 -140.06853314 -3.8759959 -96.59423828 -8.7019043 C-94.37559056 -8.95684208 -92.16842728 -9.25270306 -89.95703125 -9.5625 C-60.56968232 -12.81164421 -28.22990153 -8.2894969 0 0 Z M-108 63 C-108.83305664 63.20399414 -109.66611328 63.40798828 -110.52441406 63.61816406 C-136.20474615 70.06876302 -158.87374083 81.08837978 -180 97 C-180.98484375 97.73863281 -181.9696875 98.47726562 -182.984375 99.23828125 C-200.91879328 113.32581987 -214.51278989 130.45782182 -226 150 C-226.36367676 150.61601074 -226.72735352 151.23202148 -227.10205078 151.86669922 C-233.05872087 162.09501919 -237.30953379 172.76954943 -241 184 C-241.24379395 184.74121094 -241.48758789 185.48242188 -241.73876953 186.24609375 C-255.67843266 229.72156846 -249.75044266 277.90858199 -229.13500977 318.24975586 C-215.89310536 343.30192126 -197.51676079 365.90660225 -174 382 C-173.41637695 382.40089844 -172.83275391 382.80179688 -172.23144531 383.21484375 C-143.94733227 402.39963041 -112.02263019 412.57861631 -78 414 C-77.24025879 414.03544922 -76.48051758 414.07089844 -75.69775391 414.10742188 C-30.79179937 415.97334663 12.30089795 399.78894123 45.6875 370.0625 C48.00875443 367.922658 50.26135826 365.73823209 52.4921875 363.50390625 C54.02752928 361.97095597 55.58651135 360.46070334 57.18359375 358.9921875 C88.10330244 329.9480244 105.56956263 285.48167863 107.08691406 243.60107422 C107.74593063 221.61578097 105.00524262 200.86950838 98 180 C97.78005371 179.34161133 97.56010742 178.68322266 97.33349609 178.00488281 C91.20663699 160.22331329 81.77992742 142.66694166 70 128 C69.5580127 127.44666992 69.11602539 126.89333984 68.66064453 126.32324219 C58.69989 113.9686535 47.70404033 103.48515947 35 94 C33.99453125 93.23816406 32.9890625 92.47632813 31.953125 91.69140625 C-6.73299237 63.57882614 -61.12394215 51.26529743 -108 63 Z " fill="#FEFEFE" transform="translate(583,247)"/>
<path d="M0 0 C10.5257821 7.88535553 13.95617741 22.54022292 18.421875 34.35546875 C22.34530659 44.69278974 26.35485221 54.99509101 30.39154053 65.28863525 C31.57856629 68.31557936 32.76424363 71.34304918 33.94970703 74.37060547 C37.17049599 82.59406298 40.39334181 90.81667156 43.63671875 99.03125 C47.9711782 110.01221738 52.25565891 121.01065342 56.48828125 132.03125 C57.13648834 133.71876373 57.13648834 133.71876373 57.79779053 135.44036865 C59.96702033 141.08946069 62.13361905 146.73954411 64.29638672 152.39111328 C68.95468412 164.54628261 73.6903718 176.66431254 78.58863831 188.72514343 C78.98534225 189.70699112 79.3820462 190.68883881 79.79077148 191.70043945 C80.14123032 192.56256546 80.49168915 193.42469147 80.85276794 194.3129425 C83.41409407 201.17035479 84.20324968 209.09001126 81.2890625 215.96484375 C77.79325999 222.04504312 71.14855257 225.38393113 64.7265625 227.65234375 C57.52941462 228.33131997 51.7331973 226.44999469 46.0390625 222.08984375 C38.32608201 214.74276955 35.38873957 202.88643149 31.79516602 193.10913086 C30.90593557 190.69275985 30.00531338 188.28084591 29.10351562 185.86914062 C28.53317849 184.32967724 27.96349277 182.78997232 27.39453125 181.25 C27.12585739 180.53127213 26.85718353 179.81254425 26.58036804 179.07203674 C25.50370694 176.12505921 24.7265625 173.81650212 24.7265625 170.65234375 C-2.6634375 170.65234375 -30.0534375 170.65234375 -58.2734375 170.65234375 C-58.9334375 173.62234375 -59.5934375 176.59234375 -60.2734375 179.65234375 C-61.19121021 182.38997488 -62.13518405 185.06810556 -63.171875 187.7578125 C-63.44810699 188.48551346 -63.72433899 189.21321442 -64.00894165 189.96296692 C-64.58910311 191.48586265 -65.17241788 193.00756062 -65.75878906 194.52807617 C-66.64892836 196.84111926 -67.5242124 199.15941792 -68.3984375 201.47851562 C-68.96786545 202.96778643 -69.53814883 204.4567305 -70.109375 205.9453125 C-70.36681488 206.62981979 -70.62425476 207.31432709 -70.88949585 208.01957703 C-74.14132651 216.37263387 -78.62432131 222.15559617 -86.6484375 226.46484375 C-93.5249421 228.71749181 -98.67502856 228.16429105 -105.08984375 225.0625 C-109.73323728 222.06381473 -113.5208616 217.91007146 -115.2734375 212.65234375 C-116.24089887 203.40974688 -114.1957497 196.25823569 -110.7109375 187.77734375 C-110.21449409 186.52581548 -109.72000848 185.27350918 -109.22729492 184.02050781 C-108.16037537 181.3173506 -107.08145988 178.61942553 -105.99316406 175.92480469 C-104.22557095 171.54429172 -102.49286107 167.15046147 -100.765625 162.75390625 C-98.5890795 157.21796759 -96.40718872 151.68422266 -94.21621704 146.15397644 C-89.80565464 135.02075073 -85.43721905 123.87135902 -81.0859375 112.71484375 C-80.74850525 111.84987274 -80.411073 110.98490173 -80.06341553 110.09371948 C-76.24320458 100.29879767 -72.43651735 90.49877983 -68.6496582 80.69091797 C-63.93421589 68.47861853 -59.18337839 56.28083653 -54.38674927 44.10018921 C-53.7401244 42.45774008 -53.09416258 40.81502971 -52.44894409 39.17202759 C-50.41292005 33.9896467 -48.35659066 28.81596401 -46.2734375 23.65234375 C-46.00243225 22.97755981 -45.731427 22.30277588 -45.45220947 21.60754395 C-44.67911275 19.69480362 -43.89291695 17.78806056 -43.1015625 15.8828125 C-42.65973633 14.8105542 -42.21791016 13.7382959 -41.76269531 12.63354492 C-38.34459617 5.79118286 -32.68211268 -0.77809856 -25.5 -3.796875 C-16.59648157 -5.9993243 -7.80274785 -4.62534022 0 0 Z " fill="#FEFDFE" transform="translate(528.2734375,365.34765625)"/>
<path d="M0 0 C0.66 0 1.32 0 2 0 C2.27926331 0.76706268 2.55852661 1.53412537 2.84625244 2.32443237 C5.49234146 9.59166782 8.13995436 16.85834546 10.78923416 24.12441826 C12.15084342 27.85901222 13.51188491 31.59381096 14.87158203 35.32910156 C16.18644483 38.94115813 17.50286014 42.55264553 18.82030487 46.16376114 C19.31994469 47.53409235 19.81904675 48.90461977 20.31757355 50.27535629 C22.85531421 57.25197928 25.41661025 64.20152965 28.31561279 71.0383606 C29 73 29 73 29 76 C10.52 76 -7.96 76 -27 76 C-25.18199957 69.33399841 -23.40978424 62.98077255 -20.99609375 56.5625 C-20.71630173 55.80671661 -20.4365097 55.05093323 -20.14823914 54.27224731 C-19.24907087 51.84649964 -18.34337793 49.42324896 -17.4375 47 C-16.81254444 45.31771039 -16.18803693 43.63525427 -15.56396484 41.95263672 C-14.31152809 38.57786024 -13.05658804 35.20403286 -11.79931641 31.83105469 C-10.1451196 27.3922767 -8.49840665 22.95076858 -6.85546875 18.5078125 C-6.61886032 17.86801453 -6.38225189 17.22821655 -6.13847351 16.56903076 C-5.90981094 15.95070374 -5.68114838 15.33237671 -5.44555664 14.6953125 C-3.633355 9.7957679 -1.8170505 4.89774805 0 0 Z " fill="#E773A1" transform="translate(511,421)"/>
<path d="M0 0 C-7.2702492 4.35153602 -19.39551139 3.82223011 -27.5 2.375 C-31.61113818 1.93452091 -34.05735227 2.77196218 -38 4 C-40.01694747 4.3560918 -42.03832081 4.68762667 -44.0625 5 C-48.24256846 5.66300962 -51.99936673 6.60847539 -56 8 C-57.6008601 8.32901961 -59.20553367 8.63973135 -60.8125 8.9375 C-68.24383544 10.37259322 -75.00843383 12.88407384 -81.875 16.03125 C-83.77293804 16.89648646 -85.69763224 17.70246851 -87.625 18.5 C-90.1578625 19.62571667 -92.38643829 20.77826342 -94.75 22.1875 C-98 24 -98 24 -101 24 C-101 24.66 -101 25.32 -101 26 C-102.66220581 27.00739746 -104.33020674 28.00522955 -106 29 C-107.18286754 29.98078311 -108.3487623 30.98227564 -109.5 32 C-111.48181511 33.74690168 -113.19799529 35.11384729 -115.5 36.4375 C-118.56773462 38.35483414 -120.80732646 40.72094116 -123.3125 43.3125 C-125 45 -125 45 -127.5 46.9375 C-133.91744069 52.23188857 -138.60009638 59.07793897 -143.30078125 65.875 C-143.86152344 66.57625 -144.42226562 67.2775 -145 68 C-145.66 68 -146.32 68 -147 68 C-147.2475 68.515625 -147.495 69.03125 -147.75 69.5625 C-149.05144637 72.10032042 -150.46180943 74.5622817 -151.90234375 77.0234375 C-153.35546408 79.64008834 -154.66536157 82.32100489 -156 85 C-156.60457031 86.15113281 -157.20914063 87.30226563 -157.83203125 88.48828125 C-161.50107825 95.52699281 -164.78255451 102.57527277 -167.4375 110.0625 C-167.68411377 110.75190674 -167.93072754 111.44131348 -168.18481445 112.15161133 C-169.31246081 115.45191249 -170.053706 118.3884865 -170.53515625 121.87109375 C-171 125 -171 125 -173 127 C-172.68770276 128.33841672 -172.35169068 129.67139075 -172 131 C-172.43759775 133.97566473 -172.81956172 134.81956172 -175 137 C-174.835 137.804375 -174.67 138.60875 -174.5 139.4375 C-174 142 -174 142 -176 145 C-176.20449388 147.34758732 -176.20449388 147.34758732 -176.0625 149.875 C-175.97133959 152.46712643 -175.92968414 154.69253524 -176.50906277 157.22593975 C-177.09780553 160.55265404 -177.00873546 163.57685742 -176.88233948 166.95527649 C-176.83324176 168.45848217 -176.78488823 169.96171227 -176.73712826 171.46496105 C-176.70952699 172.28722663 -176.68192571 173.10949221 -176.65348804 173.95667493 C-175.93023836 196.36943167 -175.89106027 218.78228733 -175.88647461 241.20385742 C-175.88621791 242.08357099 -175.88596121 242.96328455 -175.88569672 243.8696561 C-175.88276136 255.14923005 -175.88803674 266.42879254 -175.89646318 277.7083631 C-175.90373626 287.72709766 -175.90512362 297.74583082 -175.90625793 307.76456765 C-175.90842905 325.62112366 -175.91503558 343.47767502 -175.92456055 361.33422852 C-175.93378552 378.64672828 -175.94084124 395.95922677 -175.94506836 413.27172852 C-175.94533108 414.3447108 -175.94559381 415.41769308 -175.94586449 416.52318998 C-175.94716984 421.90777056 -175.94843347 427.29235115 -175.94967639 432.67693174 C-175.95998837 477.11795771 -175.97755273 521.55897861 -176 566 C-176.33 566 -176.66 566 -177 566 C-178.25976535 558.17246435 -178.17497924 550.33816869 -178.20532227 542.43212891 C-178.21492074 540.83635663 -178.22492096 539.24058673 -178.23528671 537.64481926 C-178.26243086 533.26567762 -178.28343922 528.88652528 -178.30327249 524.5073452 C-178.32106059 520.74110898 -178.34229674 516.97489523 -178.36352271 513.20867705 C-178.43355118 500.76662952 -178.49166697 488.32453779 -178.54769325 475.88242054 C-178.56738215 471.55094845 -178.58784134 467.21948013 -178.60829079 462.88801157 C-178.76672847 429.25876862 -178.89273223 395.62944301 -179 362 C-179.00583052 360.1842535 -179.00583052 360.1842535 -179.01177883 358.33182526 C-179.11287506 326.75115006 -179.19047779 295.17052623 -179.22709137 263.58970726 C-179.22843754 262.430301 -179.2297837 261.27089475 -179.23117065 260.07635498 C-179.23249935 258.921299 -179.23382805 257.76624302 -179.23519701 256.57618535 C-179.24522885 248.46395808 -179.26287414 240.35176901 -179.28372192 232.23956299 C-179.30904856 222.31251851 -179.32335668 212.38552995 -179.32383865 202.45845199 C-179.32432132 197.38887065 -179.32937399 192.31941395 -179.34760094 187.24986267 C-179.50247876 141.89155385 -174.1687761 100.2570978 -146 63 C-145.32839844 62.10539062 -144.65679687 61.21078125 -143.96484375 60.2890625 C-133.09964284 46.43846993 -119.57872213 32.51708684 -104 24 C-103.34 24 -102.68 24 -102 24 C-102 23.34 -102 22.68 -102 22 C-79.34195563 10.41219304 -57.41300707 2.74895144 -32 0 C-30.74703125 -0.14308594 -29.4940625 -0.28617188 -28.203125 -0.43359375 C-18.75344924 -1.31541833 -9.43953397 -0.69565727 0 0 Z " fill="#F7CBE0" transform="translate(339,155)"/>
<path d="M0 0 C0.33 0 0.66 0 1 0 C2.2982126 5.76081841 3.25706972 11.08739655 3 17 C3.66 17 4.32 17 5 17 C5.06875904 69.85921832 5.12157589 122.7184321 5.15319599 175.5776864 C5.15694783 181.82693749 5.16083083 188.07618849 5.16479492 194.32543945 C5.16558185 195.56948329 5.16636878 196.81352712 5.16717956 198.09526926 C5.18021156 218.20357532 5.20385319 238.3118555 5.23145839 258.42014623 C5.25957408 279.07349233 5.27618926 299.72682492 5.28226548 320.38018936 C5.28636917 333.11076334 5.29930128 345.84126411 5.3237494 358.57181554 C5.33968278 367.3173654 5.34438326 376.06287775 5.34050413 384.80844105 C5.33859435 389.84412811 5.34139328 394.87968781 5.35761642 399.91535187 C5.43478221 425.13596656 5.18946518 449.58685206 -2 474 C-2.35835937 475.2375 -2.71671875 476.475 -3.0859375 477.75 C-5.87530605 486.73588526 -9.65095582 494.90920121 -14.05078125 503.203125 C-14.89591237 504.80296169 -15.7154341 506.41626751 -16.53125 508.03125 C-22.11879292 518.83383298 -29.76312743 528.11225739 -38 537 C-38.66 536.67 -39.32 536.34 -40 536 C-40 535.34 -40 534.68 -40 534 C-39.34 534 -38.68 534 -38 534 C-37.62875 533.1646875 -37.62875 533.1646875 -37.25 532.3125 C-35.77075182 529.57589087 -34.06532561 527.32349131 -32 525 C-31.34 525 -30.68 525 -30 525 C-30 524.01 -30 523.02 -30 522 C-29.34 521.67 -28.68 521.34 -28 521 C-27.71125 520.236875 -27.4225 519.47375 -27.125 518.6875 C-25.866715 515.68159695 -24.476592 514.0896245 -22 512 C-21.34 512 -20.68 512 -20 512 C-19.896875 510.741875 -19.79375 509.48375 -19.6875 508.1875 C-19.39488229 504.61756398 -18.58941142 503.41127009 -16 501 C-13.51740926 496.9080056 -11.59830987 492.78647894 -11 488 C-10.34 488 -9.68 488 -9 488 C-8.896875 487.21625 -8.79375 486.4325 -8.6875 485.625 C-8.15298336 482.80663952 -7.49949895 480.33548888 -6.625 477.625 C-4.42560425 470.56093088 -3.27277626 463.27558631 -2 456 C-1.34 456 -0.68 456 0 456 C-0.185625 455.484375 -0.37125 454.96875 -0.5625 454.4375 C-1.15991366 451.10905247 -0.55512909 448.33077455 0 445 C0.17277459 443.64659907 0.3393812 442.29239732 0.5 440.9375 C0.78663317 438.68026375 1.10695174 436.42549342 1.52338493 434.18856305 C2.03596388 430.75940102 2.12537473 427.51262174 2.12584114 424.04549122 C2.12729458 423.36651424 2.12874802 422.68753726 2.13024551 421.98798522 C2.13389303 419.71428293 2.13042486 417.44064821 2.12698364 415.16694641 C2.12813596 413.5196872 2.12972423 411.87242825 2.13171089 410.22516984 C2.13588918 405.6993262 2.13382023 401.17350362 2.13072467 396.6476599 C2.12846462 391.76611731 2.13195327 386.88457837 2.13470459 382.0030365 C2.13915526 372.43894719 2.13818878 362.87486571 2.13529195 353.31077609 C2.13303451 345.53593592 2.13272688 337.76109795 2.13381577 329.98625755 C2.13404561 328.32702415 2.13404561 328.32702415 2.13428011 326.63427087 C2.13459983 324.38714312 2.13492405 322.14001537 2.1352527 319.89288761 C2.1381056 298.81099397 2.13482378 277.72910468 2.12945233 256.64721175 C2.12498756 238.5643662 2.1257579 220.48152707 2.13037109 202.39868164 C2.13572553 181.40049785 2.13782767 160.40231788 2.13475883 139.4041335 C2.13444028 137.16369609 2.13412591 134.92325868 2.13381577 132.68282127 C2.13366149 131.58049493 2.13350721 130.47816858 2.13334826 129.3424384 C2.13248549 121.58096073 2.13394091 113.81948549 2.13629532 106.05800819 C2.13910329 96.59317554 2.13833412 87.12835118 2.13301457 77.66351948 C2.13039056 72.83590018 2.12935042 68.0082947 2.13266373 63.18067551 C2.13565365 58.75720208 2.13398907 54.33375521 2.12868617 49.91028418 C2.12757344 48.31404715 2.12812766 46.71780786 2.13056196 45.12157229 C2.25017734 31.20108533 2.25017734 31.20108533 0.46533978 17.43151551 C-0.13882932 14.27458244 0 11.20759175 0 8 C-0.495 7.01 -0.495 7.01 -1 6 C-0.71887936 3.99199544 -0.38932033 1.98985949 0 0 Z " fill="#F585B3" transform="translate(859,280)"/>
<path d="M0 0 C0.33 0 0.66 0 1 0 C2.2982126 5.76081841 3.25706972 11.08739655 3 17 C3.66 17 4.32 17 5 17 C5.02288662 70.08051074 5.04050854 123.16102098 5.05106533 176.24153569 C5.05231604 182.50754073 5.05361036 188.77354576 5.05493164 195.03955078 C5.05519395 196.28700465 5.05545626 197.53445852 5.05572652 198.81971402 C5.06007835 219.02085505 5.06796324 239.22199324 5.0771528 259.42313258 C5.08650284 280.14986814 5.09205848 300.87660221 5.09408849 321.60333979 C5.09546091 334.39380657 5.09979632 347.18426531 5.10791647 359.97472961 C5.11320057 368.74447362 5.11480049 377.51421347 5.11350138 386.28395896 C5.11286061 391.34431917 5.11384606 396.40466533 5.11920547 401.46502304 C5.12407875 406.10024637 5.12431284 410.73544621 5.12089889 415.37067063 C5.12047707 417.04513135 5.12173959 418.71959354 5.12488318 420.39405136 C5.13949004 428.6567774 5.02859087 436.78555444 4 445 C3.67 445 3.34 445 3 445 C3.00113916 444.12523506 3.00227832 443.25047012 3.003452 442.34919715 C3.07065415 390.44990813 3.12209397 338.55062374 3.15319599 286.65129988 C3.1569479 280.41320375 3.16083089 274.17510771 3.16479492 267.93701172 C3.16558185 266.69517157 3.16636878 265.45333142 3.16717956 264.17385975 C3.18021691 244.09262635 3.20386153 224.01141885 3.23145839 203.93020079 C3.25955912 183.30963954 3.27618612 162.68909181 3.28226548 142.0685122 C3.28637225 129.35481973 3.29932131 116.64120043 3.3237494 103.9275305 C3.33966426 95.19742049 3.34438739 86.46734806 3.34050413 77.73722461 C3.33859151 72.70798503 3.34142652 67.67887293 3.35761642 62.6496563 C3.37237446 58.0311207 3.37285099 53.41279651 3.36269668 48.79425052 C3.36144446 47.13710458 3.36511417 45.47994462 3.37464955 43.82282564 C3.84656674 24.37974059 3.84656674 24.37974059 -1 6 C-0.71887936 3.99199544 -0.38932033 1.98985949 0 0 Z " fill="#C36994" transform="translate(859,280)"/>
<path d="M0 0 C0 0.66 0 1.32 0 2 C-15.91087261 4.68977645 -31.97851935 4.27398447 -48.05590403 4.23213124 C-52.26491481 4.22341086 -56.47392034 4.22642291 -60.68293762 4.22793579 C-67.95690964 4.22897927 -75.2308455 4.22275924 -82.50480843 4.21146011 C-93.02144539 4.19513465 -103.53806504 4.18998993 -114.0547133 4.18748413 C-131.12152774 4.18311803 -148.18832294 4.1698385 -165.25512695 4.15087891 C-181.82381088 4.13249193 -198.39248956 4.11834925 -214.96118164 4.10986328 C-215.98424182 4.10933783 -217.007302 4.10881239 -218.061364 4.10827102 C-223.1942837 4.10566075 -228.32720343 4.10313338 -233.46012318 4.10064721 C-275.97342877 4.07994852 -318.48671339 4.04475271 -361 4 C-361 3.67 -361 3.34 -361 3 C-358.03 3 -355.06 3 -352 3 C-351.67 2.34 -351.34 1.68 -351 1 C-351 1.66 -351 2.32 -351 3 C-349.86393578 2.8934182 -349.86393578 2.8934182 -348.70492077 2.78468323 C-337.52051739 1.85199693 -326.3866903 1.87307495 -315.17114258 1.90234375 C-312.99663324 1.90426625 -310.82212346 1.90572848 -308.64761353 1.9067688 C-303.99279252 1.90991246 -299.33798998 1.91615417 -294.68317604 1.92483521 C-287.32595078 1.93841872 -279.96873152 1.94426383 -272.61149597 1.94897461 C-257.01182248 1.96004081 -241.41216366 1.9796075 -225.8125 2 C-208.93138986 2.02202864 -192.05028549 2.0425789 -175.16916388 2.05341816 C-167.85077619 2.05840713 -160.53241603 2.06827501 -153.21403944 2.08184814 C-148.67533835 2.08928587 -144.13664109 2.0926188 -139.59793472 2.0948143 C-137.48834315 2.0966923 -135.37875233 2.10030504 -133.26916695 2.10574722 C-130.3982835 2.11292287 -127.52746128 2.11400281 -124.65657043 2.11352539 C-123.39415338 2.11891783 -123.39415338 2.11891783 -122.10623294 2.12441921 C-118.81130444 2.1185165 -116.14845293 2.04948431 -113 1 C-113 1.66 -113 2.32 -113 3 C-112.34894287 2.96970703 -111.69788574 2.93941406 -111.02709961 2.90820312 C-89.15797311 1.94243278 -67.31657923 1.92561669 -45.42944336 2.03710938 C-44.25096329 2.04133911 -43.07248322 2.04556885 -41.85829163 2.04992676 C-39.62547275 2.05811486 -37.39266407 2.07051399 -35.15989685 2.08776855 C-33.65738121 2.09266296 -33.65738121 2.09266296 -32.12451172 2.09765625 C-31.25204803 2.10289307 -30.37958435 2.10812988 -29.48068237 2.11352539 C-26.89587466 1.99523483 -24.5302436 1.52291722 -22 1 C-19.45870302 0.95665165 -16.91635031 0.9598998 -14.375 1 C-9.34395491 1.0790734 -4.92744125 0 0 0 Z " fill="#EF87B6" transform="translate(729,864)"/>
<path d="M0 0 C1.06762695 1.765625 1.06762695 1.765625 2 4 C1.18890774 6.81100567 0.3112568 9.32045895 -0.8125 12 C-1.38324781 13.4159676 -1.95231278 14.83261491 -2.51953125 16.25 C-2.77839111 16.87390625 -3.03725098 17.4978125 -3.30395508 18.140625 C-4.02684172 20.07170346 -4.53666365 21.99230171 -5 24 C-5.66 24 -6.32 24 -7 24 C-7.103125 25.051875 -7.20625 26.10375 -7.3125 27.1875 C-7.99910143 30.99501701 -8.93011253 32.81555774 -11 36 C-11.71549448 37.62612381 -12.42839325 39.253655 -13.109375 40.89453125 C-15.26259707 45.98482378 -17.5280256 51.05605121 -20 56 C-20.66 56 -21.32 56 -22 56 C-22.18175781 56.63808594 -22.36351562 57.27617188 -22.55078125 57.93359375 C-22.80214844 58.75988281 -23.05351563 59.58617187 -23.3125 60.4375 C-23.55613281 61.26121094 -23.79976562 62.08492187 -24.05078125 62.93359375 C-24.36402344 63.61550781 -24.67726563 64.29742188 -25 65 C-26.485 65.495 -26.485 65.495 -28 66 C-28.2475 66.804375 -28.495 67.60875 -28.75 68.4375 C-32.09309687 77.96532608 -39.98846433 85.77959446 -46.5390625 93.31787109 C-47.55995468 94.49333017 -48.57513429 95.67376416 -49.5859375 96.85791016 C-54.16573143 102.18033772 -59.02374414 107.17379241 -64 112.125 C-64.76828125 112.89714844 -65.5365625 113.66929687 -66.328125 114.46484375 C-78.88463586 127 -78.88463586 127 -82 127 C-82 127.66 -82 128.32 -82 129 C-88.625 133 -88.625 133 -92 133 C-90.47632813 131.78376953 -90.47632813 131.78376953 -88.921875 130.54296875 C-80.32333561 123.64273792 -71.97922331 116.61146581 -64 109 C-63.07703125 108.12988281 -62.1540625 107.25976562 -61.203125 106.36328125 C-54.04385371 99.43658515 -47.95051309 91.96841771 -42 84 C-41.58395508 83.45005371 -41.16791016 82.90010742 -40.73925781 82.33349609 C-21.80463147 57.20494955 -9.79418286 29.70811699 0 0 Z " fill="#E06699" transform="translate(750,549)"/>
<path d="M0 0 C0.33 0 0.66 0 1 0 C1.16749036 5.73332393 0.67260984 10.79727019 -0.625 16.375 C-0.80321289 17.14956543 -0.98142578 17.92413086 -1.16503906 18.72216797 C-4.49835343 32.68993961 -9.27934384 45.6005834 -16.06689453 58.25146484 C-16.90892563 59.82933684 -17.72008277 61.42359074 -18.52734375 63.01953125 C-24.10980439 73.82878329 -31.76104122 83.11000633 -40 92 C-40.66 91.67 -41.32 91.34 -42 91 C-42 90.34 -42 89.68 -42 89 C-41.34 89 -40.68 89 -40 89 C-39.7525 88.443125 -39.505 87.88625 -39.25 87.3125 C-37.77075182 84.57589087 -36.06532561 82.32349131 -34 80 C-33.34 80 -32.68 80 -32 80 C-32 79.01 -32 78.02 -32 77 C-31.01 76.505 -31.01 76.505 -30 76 C-29.71125 75.236875 -29.4225 74.47375 -29.125 73.6875 C-27.866715 70.68159695 -26.476592 69.0896245 -24 67 C-23.34 67 -22.68 67 -22 67 C-21.896875 65.741875 -21.79375 64.48375 -21.6875 63.1875 C-21.39488229 59.61756398 -20.58941142 58.41127009 -18 56 C-15.51740926 51.9080056 -13.59830987 47.78647894 -13 43 C-12.34 43 -11.68 43 -11 43 C-10.896875 42.21625 -10.79375 41.4325 -10.6875 40.625 C-10.15298336 37.80663952 -9.49949895 35.33548888 -8.625 32.625 C-6.42560425 25.56093088 -5.27277626 18.27558631 -4 11 C-3.34 11 -2.68 11 -2 11 C-2.185625 10.38125 -2.37125 9.7625 -2.5625 9.125 C-3 7 -3 7 -2 5 C-1.34 5 -0.68 5 0 5 C0 3.35 0 1.7 0 0 Z " fill="#CA6098" transform="translate(861,725)"/>
<path d="M0 0 C0.66 0 1.32 0 2 0 C2.04686925 21.08933145 2.08206162 42.17865421 2.10362434 63.26802731 C2.11390558 73.0617593 2.12790512 82.8554588 2.15087891 92.64916992 C2.17090986 101.19247717 2.1837393 109.73576086 2.18817699 118.27909094 C2.19076805 122.79624288 2.19679123 127.31332748 2.21146011 131.83045769 C2.225198 136.09610736 2.2291905 140.36166299 2.22621536 144.62733269 C2.22675838 146.17954014 2.23063812 147.73175128 2.23841095 149.28393936 C2.28935328 159.99693925 1.46033834 170.38660265 0 181 C-2.25039617 177.62440574 -2.17616009 177.02024357 -1.6875 173.1875 C-1.53861328 171.94033203 -1.53861328 171.94033203 -1.38671875 170.66796875 C-1.12467416 168.8601258 -0.82215637 167.05777223 -0.48334599 165.26273155 C0.02477189 161.83278225 0.12294197 158.59514048 0.12025452 155.12832642 C0.12110894 154.46166438 0.12196337 153.79500235 0.12284368 153.10813844 C0.12448275 150.88798239 0.11900304 148.66790293 0.11352539 146.44775391 C0.11324315 144.8508301 0.11340197 143.25390616 0.1139679 141.65698242 C0.11425444 137.33101799 0.10838074 133.00508138 0.10139394 128.6791234 C0.09513667 124.15476657 0.09455472 119.63040908 0.09336853 115.10604858 C0.09026221 106.54266137 0.08205825 97.97928694 0.07201904 89.41590536 C0.06083619 79.6650466 0.05534198 69.91418722 0.05032361 60.16332364 C0.03987506 40.10887529 0.02228915 20.05443845 0 0 Z " fill="#ED78AD" transform="translate(861,549)"/>
<path d="M0 0 C0.53625 0.16242188 1.0725 0.32484375 1.625 0.4921875 C4.46667646 1.0997828 7.09488707 1.13226278 10 1.125 C11.03125 1.12757813 12.0625 1.13015625 13.125 1.1328125 C15.59657009 1.01863671 17.6442958 0.71350656 20 0 C20 0.33 20 0.66 20 1 C74.45 1.495 74.45 1.495 130 2 C129.67 2.66 129.34 3.32 129 4 C127.93551132 3.99666908 127.93551132 3.99666908 126.84951782 3.99327087 C120.16901448 3.97325256 113.48851947 3.95801798 106.80799294 3.94818783 C103.37328438 3.94296421 99.93860057 3.93587599 96.50390625 3.92456055 C92.55729465 3.91163965 88.61069316 3.90676748 84.6640625 3.90234375 C82.80933823 3.89460182 82.80933823 3.89460182 80.91714478 3.88670349 C79.77611298 3.88662796 78.63508118 3.88655243 77.45947266 3.88647461 C76.451315 3.884254 75.44315735 3.88203339 74.40444946 3.87974548 C71.98666939 3.83917452 71.98666939 3.83917452 70 5 C70 4.34 70 3.68 70 3 C68.73542969 3.0721875 67.47085938 3.144375 66.16796875 3.21875 C64.50781499 3.312544 62.8476586 3.40629158 61.1875 3.5 C59.93743164 3.57154297 59.93743164 3.57154297 58.66210938 3.64453125 C57.85966797 3.68964844 57.05722656 3.73476562 56.23046875 3.78125 C55.49207764 3.82314453 54.75368652 3.86503906 53.99291992 3.90820312 C52.33009506 3.98479533 50.6645879 4 49 4 C47.51545683 4.00202047 46.03091401 4.00429584 44.54637146 4.00672913 C31.78705586 4.02694578 19.02774446 4.04202386 6.2684164 4.05181217 C-0.28191878 4.05701118 -6.83224076 4.06405774 -13.38256836 4.07543945 C-19.72732102 4.08639174 -26.07206104 4.09230236 -32.41682243 4.09487724 C-34.82181942 4.09670855 -37.22681581 4.10028398 -39.63180733 4.10573006 C-53.1259584 4.13505226 -66.5368748 3.95804858 -80 3 C-80 2.67 -80 2.34 -80 2 C-53.6 2 -27.2 2 0 2 C0 1.34 0 0.68 0 0 Z " fill="#EBB4CA" transform="translate(404,152)"/>
<path d="M0 0 C1.32 0.66 2.64 1.32 4 2 C-13.63253207 18.15919381 -44.37732053 34.90358457 -69 34 C-69 33.34 -69 32.68 -69 32 C-67.906875 31.731875 -66.81375 31.46375 -65.6875 31.1875 C-57.98529497 29.25514468 -50.35470398 27.23192514 -42.875 24.55078125 C-41 24 -41 24 -38 24 C-37.67 23.34 -37.34 22.68 -37 22 C-34.67843403 21.59270772 -32.3431213 21.25561323 -30 21 C-29.505 19.515 -29.505 19.515 -29 18 C-28.01 18 -27.02 18 -26 18 C-25.67 17.34 -25.34 16.68 -25 16 C-22.26141595 14.9654238 -19.64060233 14.10676706 -16.75 13.625 C-16.1725 13.41875 -15.595 13.2125 -15 13 C-14.71125 12.34 -14.4225 11.68 -14.125 11 C-13.75375 10.34 -13.3825 9.68 -13 9 C-9.875 8.25 -9.875 8.25 -7 8 C-7 7.34 -7 6.68 -7 6 C-6.01 5.67 -5.02 5.34 -4 5 C-3.34 4.01 -2.68 3.02 -2 2 C-1.34 2 -0.68 2 0 2 C0 1.34 0 0.68 0 0 Z " fill="#D0659C" transform="translate(799,832)"/>
<path d="M0 0 C0 0.66 0 1.32 0 2 C-13.82860677 4.08176699 -27.44594525 4.26257498 -41.41015625 4.1953125 C-43.71756364 4.19157321 -46.02497264 4.18873058 -48.3323822 4.18673706 C-54.34754981 4.17917269 -60.3626178 4.15958767 -66.37774658 4.1373291 C-72.53892673 4.11671393 -78.70012328 4.10770214 -84.86132812 4.09765625 C-96.90759538 4.07633364 -108.95378934 4.04228675 -121 4 C-118.33788628 2.62420173 -115.93703384 1.62936439 -113 1 C-113 1.66 -113 2.32 -113 3 C-112.34894287 2.96970703 -111.69788574 2.93941406 -111.02709961 2.90820312 C-89.15797311 1.94243278 -67.31657923 1.92561669 -45.42944336 2.03710938 C-44.25096329 2.04133911 -43.07248322 2.04556885 -41.85829163 2.04992676 C-39.62547275 2.05811486 -37.39266407 2.07051399 -35.15989685 2.08776855 C-33.65738121 2.09266296 -33.65738121 2.09266296 -32.12451172 2.09765625 C-30.81581619 2.10551147 -30.81581619 2.10551147 -29.48068237 2.11352539 C-26.89587466 1.99523483 -24.5302436 1.52291722 -22 1 C-19.45870302 0.95665165 -16.91635031 0.9598998 -14.375 1 C-9.34395491 1.0790734 -4.92744125 0 0 0 Z " fill="#EA7BB0" transform="translate(729,864)"/>
<path d="M0 0 C0.33 0.99 0.66 1.98 1 3 C0.34 4.32 -0.32 5.64 -1 7 C16.16 7 33.32 7 51 7 C50.34 4.69 49.68 2.38 49 0 C52.61703101 2.83071992 52.13119582 3.78717492 53 9 C34.52 9 16.04 9 -3 9 C-2.01 6.03 -1.02 3.06 0 0 Z " fill="#E15E95" transform="translate(487,488)"/>
<path d="M0 0 C0.99 0.495 0.99 0.495 2 1 C-2.75 4 -2.75 4 -5 4 C-5 4.66 -5 5.32 -5 6 C-6.78953185 6.83790789 -8.58169695 7.67019396 -10.375 8.5 C-11.37273438 8.9640625 -12.37046875 9.428125 -13.3984375 9.90625 C-16 11 -16 11 -18 11 C-18 11.66 -18 12.32 -18 13 C-18.54092285 13.17595703 -19.0818457 13.35191406 -19.63916016 13.53320312 C-25.27335501 15.38587248 -30.82606035 17.40800033 -36.375 19.5 C-42.47739337 21.78162997 -48.52508469 23.87678591 -54.87109375 25.39453125 C-57.03660931 25.92850989 -57.03660931 25.92850989 -58.98828125 27.06640625 C-61.39827973 28.18483273 -63.10857189 28.20268906 -65.75 28.125 C-66.54921875 28.10695313 -67.3484375 28.08890625 -68.171875 28.0703125 C-68.77515625 28.04710937 -69.3784375 28.02390625 -70 28 C-66.57766525 25.7184435 -63.29762138 24.93424573 -59.375 23.9375 C-40.64545768 18.92681479 -22.90925533 12.05270179 -5.86376953 2.84619141 C-5.14688965 2.47026855 -4.43000977 2.0943457 -3.69140625 1.70703125 C-3.03470947 1.35745361 -2.3780127 1.00787598 -1.70141602 0.64770508 C-1.13994873 0.4339624 -0.57848145 0.22021973 0 0 Z " fill="#E16C9D" transform="translate(636,696)"/>
<path d="M0 0 C0.33 0 0.66 0 1 0 C1.04678896 8.18133073 1.08210156 16.36260354 1.10362434 24.54403591 C1.11396547 28.34491716 1.12794252 32.14570544 1.15087891 35.9465332 C1.34106813 68.27690673 1.34106813 68.27690673 -1 82 C-3.25039617 78.62440574 -3.17616009 78.02024357 -2.6875 74.1875 C-2.58824219 73.35605469 -2.48898437 72.52460937 -2.38671875 71.66796875 C-2.12219273 69.84300638 -1.81863352 68.02339236 -1.48193359 66.21035767 C-1.01001318 63.06670189 -0.88608186 60.14222452 -0.90234375 56.96630859 C-0.90564697 55.79844818 -0.9089502 54.63058777 -0.91235352 53.42733765 C-0.92065186 52.1803006 -0.9289502 50.93326355 -0.9375 49.6484375 C-0.94328498 47.67522018 -0.94906443 45.70200283 -0.95451355 43.72878456 C-0.96541651 40.27750319 -0.98291507 36.8262554 -1 33.375 C-1.02039199 29.24802145 -1.03961617 25.12106349 -1.05102539 20.99404907 C-1.05856073 18.42760451 -1.07062379 15.86116846 -1.08764648 13.29476929 C-1.09094971 12.1332132 -1.09425293 10.9716571 -1.09765625 9.77490234 C-1.10289307 8.75375336 -1.10812988 7.73260437 -1.11352539 6.68051147 C-1.01207081 4.28501053 -0.68896672 2.28643805 0 0 Z " fill="#E870AA" transform="translate(862,648)"/>
<path d="M0 0 C0.33 0 0.66 0 1 0 C2.2982126 5.76081841 3.25706972 11.08739655 3 17 C3.66 17 4.32 17 5 17 C5 37.79 5 58.58 5 80 C4.67 80 4.34 80 4 80 C3.99413376 79.39295227 3.98826752 78.78590454 3.98222351 78.16046143 C3.91735 71.73397383 3.83271503 65.30794462 3.73754883 58.88183594 C3.70467725 56.49648149 3.67653345 54.11105629 3.65356445 51.72558594 C4.44247578 28.32771862 4.44247578 28.32771862 -1 6 C-0.71887936 3.99199544 -0.38932033 1.98985949 0 0 Z " fill="#CC789C" transform="translate(859,280)"/>
<path d="M0 0 C0.99 0.33 1.98 0.66 3 1 C0.00819475 7.70223038 -6.26943166 12.60212197 -12 17 C-12.66 17 -13.32 17 -14 17 C-12.125 12.25 -12.125 12.25 -11 10 C-10.01 10 -9.02 10 -8 10 C-8 9.34 -8 8.68 -8 8 C-7.401875 7.896875 -6.80375 7.79375 -6.1875 7.6875 C-3.63683235 6.8858616 -2.63308005 6.09967436 -1 4 C-0.28552357 1.89667109 -0.28552357 1.89667109 0 0 Z " fill="#C45F94" transform="translate(817,816)"/>
<path d="M0 0 C0.99 0 1.98 0 3 0 C4.125 3.75 4.125 3.75 3 6 C3.66 6 4.32 6 5 6 C5 6.99 5 7.98 5 9 C5.66 9 6.32 9 7 9 C7.93423645 12.01031744 8.04449911 12.86650268 7 16 C7.66 16.33 8.32 16.66 9 17 C9.59355614 19.64860427 9.74209269 22.29197322 10 25 C7.78035859 22.78035859 7.15961366 21.19628099 6.0546875 18.28125 C5.70019531 17.34925781 5.34570312 16.41726563 4.98046875 15.45703125 C4.61566406 14.48121094 4.25085938 13.50539063 3.875 12.5 C3.50246094 11.52417969 3.12992188 10.54835938 2.74609375 9.54296875 C0 2.27034684 0 2.27034684 0 0 Z " fill="#DB528E" transform="translate(579,483)"/>
<path d="M0 0 C0 0.66 0 1.32 0 2 C-2.68693722 2.33851178 -5.37440289 2.670936 -8.0625 3 C-9.19075195 3.14308594 -9.19075195 3.14308594 -10.34179688 3.2890625 C-22.80108173 4.79927885 -22.80108173 4.79927885 -27 2 C-22.73631867 0.94642623 -18.75556288 0.93087869 -14.375 1 C-9.34395491 1.0790734 -4.92744125 0 0 0 Z " fill="#E772AB" transform="translate(729,864)"/>
<path d="M0 0 C0.99 0.33 1.98 0.66 3 1 C3 2.65 3 4.3 3 6 C3.66 6.33 4.32 6.66 5 7 C4.67 7.66 4.34 8.32 4 9 C4.66 9 5.32 9 6 9 C6.53154742 10.60064843 7.04988353 12.20568874 7.5625 13.8125 C7.85253906 14.70582031 8.14257812 15.59914063 8.44140625 16.51953125 C9 19 9 19 8 22 C6.66108439 18.71057634 5.32982297 15.41810891 4 12.125 C3.6184375 11.18785156 3.236875 10.25070312 2.84375 9.28515625 C2.4828125 8.38925781 2.121875 7.49335937 1.75 6.5703125 C1.41484375 5.74289551 1.0796875 4.91547852 0.734375 4.06298828 C0 2 0 2 0 0 Z " fill="#D8508E" transform="translate(591,514)"/>
<path d="M0 0 C-2.53851462 0.84416163 -5.08010854 1.67547299 -7.625 2.5 C-8.33785156 2.73847656 -9.05070313 2.97695313 -9.78515625 3.22265625 C-13.99306024 4.57381808 -17.52236798 5.28250044 -22 5 C-18.75911955 2.14177773 -16.18441289 1.45388528 -11.9375 0.875 C-1.70199826 -0.56733275 -1.70199826 -0.56733275 0 0 Z " fill="#D44C8E" transform="translate(568,652)"/>
<path d="M0 0 C0.99 0.33 1.98 0.66 3 1 C2.80664062 1.64066406 2.61328125 2.28132812 2.4140625 2.94140625 C0.9059252 7.95110985 -0.57717786 12.96539857 -2 18 C-2.33 18 -2.66 18 -3 18 C-2.51679152 11.7945858 -1.66681876 6.00054754 0 0 Z " fill="#E16E9D" transform="translate(755,526)"/>
<path d="M0 0 C0.33 0 0.66 0 1 0 C1.69721895 2.93550125 2.38309005 5.87287476 3.0625 8.8125 C3.26166016 9.64587891 3.46082031 10.47925781 3.66601562 11.33789062 C3.94155273 12.54155273 3.94155273 12.54155273 4.22265625 13.76953125 C4.39547119 14.50792236 4.56828613 15.24631348 4.74633789 16.00708008 C5 18 5 18 4 21 C4 20.34 4 19.68 4 19 C3.34 19 2.68 19 2 19 C1.66089006 16.95928485 1.32897296 14.91737379 1 12.875 C0.814375 11.73804688 0.62875 10.60109375 0.4375 9.4296875 C0.03043951 6.23862398 -0.07809902 3.21182209 0 0 Z " fill="#F1A0C3" transform="translate(165,736)"/>
<path d="M0 0 C0.97961897 2.93885692 1.03775226 4.05758525 0.66015625 7.01171875 C0.56669922 7.76904297 0.47324219 8.52636719 0.37695312 9.30664062 C0.27318359 10.09232422 0.16941406 10.87800781 0.0625 11.6875 C-0.03740234 12.48478516 -0.13730469 13.28207031 -0.24023438 14.10351562 C-0.48748847 16.06977435 -0.74295637 18.03499706 -1 20 C-3.25039617 16.62440574 -3.17616009 16.02024357 -2.6875 12.1875 C-2.52314453 10.86492188 -2.52314453 10.86492188 -2.35546875 9.515625 C-2.23816406 8.68546875 -2.12085938 7.8553125 -2 7 C-1.835 5.824375 -1.67 4.64875 -1.5 3.4375 C-1 1 -1 1 0 0 Z " fill="#DE68A4" transform="translate(862,710)"/>
<path d="M0 0 C2.31 0.66 4.62 1.32 7 2 C7 2.66 7 3.32 7 4 C7.99 4.33 8.98 4.66 10 5 C10 5.66 10 6.32 10 7 C5.76570244 5.68938409 1.92592596 4.05643741 -2 2 C-1.34 1.34 -0.68 0.68 0 0 Z " fill="#E48AB1" transform="translate(245,847)"/>
<path d="M0 0 C0.33 0 0.66 0 1 0 C0.48914188 6.43681228 -0.72942897 11.95942424 -3 18 C-4.07868195 14.6951021 -3.90419019 12.38236521 -3.1875 9 C-3.01605469 8.154375 -2.84460938 7.30875 -2.66796875 6.4375 C-2.02335268 4.0852168 -1.17002281 2.1326998 0 0 Z " fill="#D24688" transform="translate(685,517)"/>
<path d="M0 0 C5.76044212 0.60636233 10.72014369 2.75658279 16 5 C14.02 5.99 14.02 5.99 12 7 C11.67 6.01 11.34 5.02 11 4 C9.02 4 7.04 4 5 4 C5 3.34 5 2.68 5 2 C3.35 1.67 1.7 1.34 0 1 C0 0.67 0 0.34 0 0 Z " fill="#DE8FB0" transform="translate(755,164)"/>
<path d="M0 0 C0.66 0 1.32 0 2 0 C4.09230769 4.43076923 4.09230769 4.43076923 3.625 7.3125 C3.41875 7.869375 3.2125 8.42625 3 9 C2.34 8.01 1.68 7.02 1 6 C0.34 6 -0.32 6 -1 6 C-1.33 6.66 -1.66 7.32 -2 8 C-1.125 2.25 -1.125 2.25 0 0 Z " fill="#E15991" transform="translate(511,421)"/>
<path d="M0 0 C-5.08041833 2.67677955 -9.37582495 3.48875222 -15 2 C-15 1.67 -15 1.34 -15 1 C-10.03926578 -0.32286246 -5.08888488 -0.08893197 0 0 Z " fill="#E575A3" transform="translate(554,726)"/>
<path d="M0 0 C0.66 0.33 1.32 0.66 2 1 C-5.11389522 8.66742597 -5.11389522 8.66742597 -10 10 C-9.25 7.5625 -9.25 7.5625 -8 5 C-6.125 4.4375 -6.125 4.4375 -4 4 C-1.77022004 2.02098426 -1.77022004 2.02098426 0 0 Z " fill="#D24689" transform="translate(631,612)"/>
<path d="M0 0 C0.33 0.66 0.66 1.32 1 2 C-0.98 4.97 -2.96 7.94 -5 11 C-6.33332095 8.3333581 -5.67102033 6.83319697 -5 4 C-4.0409375 3.8453125 -4.0409375 3.8453125 -3.0625 3.6875 C-2.381875 3.460625 -1.70125 3.23375 -1 3 C-0.67 2.01 -0.34 1.02 0 0 Z " fill="#BE5A8F" transform="translate(840,789)"/>
<path d="M0 0 C0.268125 0.639375 0.53625 1.27875 0.8125 1.9375 C1.88667752 4.33131686 1.88667752 4.33131686 5 5 C5 7.64 5 10.28 5 13 C1.42988974 9.267612 0.89086558 4.9050011 0 0 Z " fill="#E15A91" transform="translate(545,395)"/>
<path d="M0 0 C2.41316065 3.21754753 3.8515438 5.26751735 5 9 C4.67 9.99 4.34 10.98 4 12 C4 11.34 4 10.68 4 10 C3.34 10 2.68 10 2 10 C1.34 6.7 0.68 3.4 0 0 Z " fill="#D8528D" transform="translate(673,410)"/>
<path d="M0 0 C1.9375 0.75 1.9375 0.75 4 2 C4.75 4.125 4.75 4.125 5 6 C5.66 6 6.32 6 7 6 C6.67 7.32 6.34 8.64 6 10 C4.99421411 8.71283353 3.99553202 7.42011342 3 6.125 C2.443125 5.40570312 1.88625 4.68640625 1.3125 3.9453125 C0 2 0 2 0 0 Z " fill="#E38EB1" transform="translate(186,794)"/>
<path d="M0 0 C-2 2 -2 2 -5 2.25 C-8 2 -8 2 -10 0 C-6.7169902 -1.6415049 -3.57454967 -0.51888624 0 0 Z " fill="#DF69A0" transform="translate(496,658)"/>
<path d="M0 0 C-2.28459758 2.28459758 -4.12537344 2.97129748 -7.125 4.125 C-8.03507812 4.47820312 -8.94515625 4.83140625 -9.8828125 5.1953125 C-10.58148438 5.46085937 -11.28015625 5.72640625 -12 6 C-12.33 5.34 -12.66 4.68 -13 4 C-11.40233897 3.13372601 -9.79660056 2.28233535 -8.1875 1.4375 C-7.29417969 0.96183594 -6.40085937 0.48617188 -5.48046875 -0.00390625 C-3 -1 -3 -1 0 0 Z " fill="#F7B0CE" transform="translate(414,257)"/>
<path d="M0 0 C2.26185454 2.26185454 3.03921617 3.96983561 4 7 C3.67 7.99 3.34 8.98 3 10 C1.68 8.68 0.36 7.36 -1 6 C-0.34 5.67 0.32 5.34 1 5 C0.67 3.35 0.34 1.7 0 0 Z " fill="#D883A6" transform="translate(849,250)"/>
<path d="M0 0 C2.83374881 3.20336822 3.5205537 5.78087253 4 10 C0.9083091 7.47043472 0.09068668 4.77545388 -1 1 C-0.67 0.67 -0.34 0.34 0 0 Z " fill="#E491B3" transform="translate(179,779)"/>
<path d="M0 0 C-3.20380017 2.13586678 -4.01939967 2.23132175 -7.6875 2.125 C-8.89986328 2.09792969 -8.89986328 2.09792969 -10.13671875 2.0703125 C-11.05904297 2.03550781 -11.05904297 2.03550781 -12 2 C-7.47621396 -1.01585736 -5.21315314 -1.04263063 0 0 Z " fill="#E479A5" transform="translate(578,722)"/>
<path d="M0 0 C6.27 0 12.54 0 19 0 C19 0.33 19 0.66 19 1 C12.73 1 6.46 1 0 1 C0 0.67 0 0.34 0 0 Z " fill="#EBBECE" transform="translate(358,152)"/>
<path d="M0 0 C0.66 0.33 1.32 0.66 2 1 C0.6875 3.5 0.6875 3.5 -1 6 C-1.99 6 -2.98 6 -4 6 C-4 5.34 -4 4.68 -4 4 C-3.34 4 -2.68 4 -2 4 C-1.34 2.68 -0.68 1.36 0 0 Z " fill="#D1629C" transform="translate(823,810)"/>
<path d="M0 0 C0.6875 1.625 0.6875 1.625 1 4 C-0.4375 7.25 -0.4375 7.25 -2 10 C-2.33 10 -2.66 10 -3 10 C-3 8.35 -3 6.7 -3 5 C-2.34 5 -1.68 5 -1 5 C-0.67 3.35 -0.34 1.7 0 0 Z " fill="#D34C8D" transform="translate(680,536)"/>
<path d="M0 0 C0.66 0.66 1.32 1.32 2 2 C1.96712417 4.72869407 1.43602229 7.2966618 1 10 C-1.56687367 6.1496895 -0.83288724 4.41430237 0 0 Z " fill="#DB669B" transform="translate(685,446)"/>
<path d="M0 0 C0.33 0.66 0.66 1.32 1 2 C0.22265625 3.7265625 0.22265625 3.7265625 -0.9375 5.625 C-1.618125 6.73875 -2.29875 7.8525 -3 9 C-3.66 8.34 -4.32 7.68 -5 7 C-2.25 1.125 -2.25 1.125 0 0 Z " fill="#F083AF" transform="translate(354,405)"/>
<path d="M0 0 C3.36241563 0.45438049 6.04009971 1.35561095 9 3 C2.375 3.25 2.375 3.25 -1 1 C-0.67 0.67 -0.34 0.34 0 0 Z " fill="#DD6FA6" transform="translate(703,865)"/>
<path d="M0 0 C0.33 0.66 0.66 1.32 1 2 C1.66 2 2.32 2 3 2 C3.33 4.31 3.66 6.62 4 9 C1.18167487 7.59083743 0.97406539 5.92219617 0 3 C0 2.01 0 1.02 0 0 Z " fill="#E493B5" transform="translate(171,764)"/>
<path d="M0 0 C4.95 0 9.9 0 15 0 C15 0.33 15 0.66 15 1 C10.05 1 5.1 1 0 1 C0 0.67 0 0.34 0 0 Z " fill="#C96D99" transform="translate(672,870)"/>
<path d="M0 0 C4.62 0 9.24 0 14 0 C14 0.33 14 0.66 14 1 C9.38 1 4.76 1 0 1 C0 0.67 0 0.34 0 0 Z " fill="#E39EBA" transform="translate(596,152)"/>
<path d="M0 0 C3.3 0 6.6 0 10 0 C10 0.33 10 0.66 10 1 C6.7 1 3.4 1 0 1 C0 0.67 0 0.34 0 0 Z " fill="#CB6F9A" transform="translate(656,870)"/>
<path d="M0 0 C3.3 0 6.6 0 10 0 C10 0.33 10 0.66 10 1 C6.7 1 3.4 1 0 1 C0 0.67 0 0.34 0 0 Z " fill="#D479A1" transform="translate(536,870)"/>
<path d="M0 0 C2.64 0 5.28 0 8 0 C7.67 0.66 7.34 1.32 7 2 C4.69 1.67 2.38 1.34 0 1 C0 0.67 0 0.34 0 0 Z " fill="#D2759E" transform="translate(559,870)"/>
<path d="M0 0 C2.64 0 5.28 0 8 0 C8 0.33 8 0.66 8 1 C5.36 1 2.72 1 0 1 C0 0.67 0 0.34 0 0 Z " fill="#D2759F" transform="translate(600,870)"/>
<path d="M0 0 C2.64 0 5.28 0 8 0 C8 0.33 8 0.66 8 1 C5.36 1 2.72 1 0 1 C0 0.67 0 0.34 0 0 Z " fill="#D77DA5" transform="translate(463,870)"/>
<path d="M0 0 C2.64 0 5.28 0 8 0 C8 0.33 8 0.66 8 1 C5.36 1 2.72 1 0 1 C0 0.67 0 0.34 0 0 Z " fill="#ECC0D0" transform="translate(348,152)"/>
<path d="M0 0 C2.64 0 5.28 0 8 0 C8 0.33 8 0.66 8 1 C5.36 1 2.72 1 0 1 C0 0.67 0 0.34 0 0 Z " fill="#ECC2D2" transform="translate(339,152)"/>
<path d="M0 0 C2.31 0 4.62 0 7 0 C7 0.33 7 0.66 7 1 C4.69 1 2.38 1 0 1 C0 0.67 0 0.34 0 0 Z " fill="#C56B97" transform="translate(694,870)"/>
<path d="M0 0 C2.31 0 4.62 0 7 0 C7 0.33 7 0.66 7 1 C4.69 1 2.38 1 0 1 C0 0.67 0 0.34 0 0 Z " fill="#D0749F" transform="translate(583,870)"/>
<path d="M0 0 C2.31 0 4.62 0 7 0 C7 0.33 7 0.66 7 1 C4.69 1 2.38 1 0 1 C0 0.67 0 0.34 0 0 Z " fill="#D376A1" transform="translate(571,870)"/>
<path d="M0 0 C2.31 0 4.62 0 7 0 C7 0.33 7 0.66 7 1 C4.69 1 2.38 1 0 1 C0 0.67 0 0.34 0 0 Z " fill="#E8AEC4" transform="translate(479,152)"/>
<path d="M0 0 C1.98 0 3.96 0 6 0 C6 0.33 6 0.66 6 1 C4.02 1 2.04 1 0 1 C0 0.67 0 0.34 0 0 Z " fill="#CE719C" transform="translate(616,870)"/>
<path d="M0 0 C1.98 0 3.96 0 6 0 C6 0.33 6 0.66 6 1 C4.02 1 2.04 1 0 1 C0 0.67 0 0.34 0 0 Z " fill="#D783A5" transform="translate(351,870)"/>
<path d="M0 0 C1.98 0 3.96 0 6 0 C6 0.33 6 0.66 6 1 C4.02 1 2.04 1 0 1 C0 0.67 0 0.34 0 0 Z " fill="#E6ACC2" transform="translate(494,152)"/>
<path d="M0 0 C1.65 0 3.3 0 5 0 C5 0.33 5 0.66 5 1 C3.35 1 1.7 1 0 1 C0 0.67 0 0.34 0 0 Z " fill="#C56C97" transform="translate(688,870)"/>
<path d="M0 0 C1.65 0 3.3 0 5 0 C5 0.33 5 0.66 5 1 C3.35 1 1.7 1 0 1 C0 0.67 0 0.34 0 0 Z " fill="#CF719A" transform="translate(640,870)"/>
<path d="M0 0 C1.65 0 3.3 0 5 0 C5 0.33 5 0.66 5 1 C3.35 1 1.7 1 0 1 C0 0.67 0 0.34 0 0 Z " fill="#D2749C" transform="translate(609,870)"/>
<path d="M0 0 C1.32 0.33 2.64 0.66 4 1 C2.68 1.33 1.36 1.66 0 2 C0 1.34 0 0.68 0 0 Z " fill="#D57DA3" transform="translate(488,870)"/>
<path d="M0 0 C1.65 0 3.3 0 5 0 C5 0.33 5 0.66 5 1 C3.35 1 1.7 1 0 1 C0 0.67 0 0.34 0 0 Z " fill="#D67FA4" transform="translate(456,870)"/>
<path d="M0 0 C1.65 0 3.3 0 5 0 C5 0.33 5 0.66 5 1 C3.35 1 1.7 1 0 1 C0 0.67 0 0.34 0 0 Z " fill="#D782A6" transform="translate(360,870)"/>
<path d="M0 0 C1.65 0 3.3 0 5 0 C5 0.33 5 0.66 5 1 C3.35 1 1.7 1 0 1 C0 0.67 0 0.34 0 0 Z " fill="#D784A6" transform="translate(342,870)"/>
<path d="M0 0 C1.65 0 3.3 0 5 0 C5 0.33 5 0.66 5 1 C3.35 1 1.7 1 0 1 C0 0.67 0 0.34 0 0 Z " fill="#D583A7" transform="translate(328,870)"/>
<path d="M0 0 C1.65 0 3.3 0 5 0 C5 0.33 5 0.66 5 1 C3.35 1 1.7 1 0 1 C0 0.67 0 0.34 0 0 Z " fill="#E6A7C1" transform="translate(529,152)"/>
<path d="M0 0 C1.65 0 3.3 0 5 0 C5 0.33 5 0.66 5 1 C3.35 1 1.7 1 0 1 C0 0.67 0 0.34 0 0 Z " fill="#EAB5CA" transform="translate(430,152)"/>
<path d="M0 0 C4 1 4 1 4 1 Z " fill="#D377A0" transform="translate(549,870)"/>
<path d="M0 0 C4 1 4 1 4 1 Z " fill="#D778A1" transform="translate(531,870)"/>
<path d="M0 0 C4 1 4 1 4 1 Z " fill="#D982A6" transform="translate(406,870)"/>
<path d="M0 0 C4 1 4 1 4 1 Z " fill="#E099B6" transform="translate(648,152)"/>
<path d="M0 0 C4 1 4 1 4 1 Z " fill="#E39CB8" transform="translate(630,152)"/>
<path d="M0 0 C4 1 4 1 4 1 Z " fill="#E29EB8" transform="translate(611,152)"/>
<path d="M0 0 C4 1 4 1 4 1 Z " fill="#E5A3BF" transform="translate(551,152)"/>
<path d="M0 0 C4 1 4 1 4 1 Z " fill="#E7ADC4" transform="translate(487,152)"/>
<path d="M0 0 C4 1 4 1 4 1 Z " fill="#E8B1C6" transform="translate(453,152)"/>
<path d="M0 0 C4 1 4 1 4 1 Z " fill="#EABACC" transform="translate(396,152)"/>
<path d="M0 0 C4 1 4 1 4 1 Z " fill="#EBC1D3" transform="translate(333,152)"/>
<path d="M0 0 C3 1 3 1 3 1 Z " fill="#D678A0" transform="translate(522,870)"/>
<path d="M0 0 C3 1 3 1 3 1 Z " fill="#D57CA2" transform="translate(496,870)"/>
<path d="M0 0 C0.66 0 1.32 0 2 0 C1.67 0.66 1.34 1.32 1 2 C0.67 1.34 0.34 0.68 0 0 Z " fill="#DB89AA" transform="translate(185,797)"/>
<path d="M0 0 C0.33 0.66 0.66 1.32 1 2 C0.34 1.67 -0.32 1.34 -1 1 C-0.67 0.67 -0.34 0.34 0 0 Z " fill="#DD92AF" transform="translate(164,750)"/>
<path d="" fill="#EEC6D4" transform="translate(0,0)"/>
<path d="M0 0 C0.33 0.66 0.66 1.32 1 2 C0.34 1.67 -0.32 1.34 -1 1 C-0.67 0.67 -0.34 0.34 0 0 Z " fill="#CE809F" transform="translate(829,211)"/>
<path d="M0 0 C3 1 3 1 3 1 Z " fill="#DB91B0" transform="translate(710,153)"/>
<path d="M0 0 C3 1 3 1 3 1 Z " fill="#E5A1BB" transform="translate(576,152)"/>
<path d="M0 0 C3 1 3 1 3 1 Z " fill="#E7A4BE" transform="translate(546,152)"/>
<path d="M0 0 C3 1 3 1 3 1 Z " fill="#E7A8BF" transform="translate(524,152)"/>
<path d="M0 0 C3 1 3 1 3 1 Z " fill="#EAB7CA" transform="translate(412,152)"/>
<path d="M0 0 C3 1 3 1 3 1 Z " fill="#EBBBCD" transform="translate(384,152)"/>
<path d="M0 0 C3 1 3 1 3 1 Z " fill="#EBBCCC" transform="translate(378,152)"/>
<path d="" fill="#D483A3" transform="translate(0,0)"/>
<path d="M0 0 C2 1 2 1 2 1 Z " fill="#C46894" transform="translate(707,870)"/>
<path d="M0 0 C2 1 2 1 2 1 Z " fill="#CD719C" transform="translate(648,870)"/>
<path d="M0 0 C2 1 2 1 2 1 Z " fill="#D1729F" transform="translate(634,870)"/>
<path d="M0 0 C2 1 2 1 2 1 Z " fill="#D2719B" transform="translate(628,870)"/>
<path d="M0 0 C2 1 2 1 2 1 Z " fill="#D379A3" transform="translate(568,870)"/>
<path d="M0 0 C2 1 2 1 2 1 Z " fill="#D4779F" transform="translate(555,870)"/>
<path d="M0 0 C2 1 2 1 2 1 Z " fill="#D879A0" transform="translate(528,870)"/>
<path d="M0 0 C2 1 2 1 2 1 Z " fill="#D57AA2" transform="translate(500,870)"/>
<path d="M0 0 C2 1 2 1 2 1 Z " fill="#D67DA3" transform="translate(493,870)"/>
<path d="M0 0 C2 1 2 1 2 1 Z " fill="#D87DA3" transform="translate(472,870)"/>
<path d="M0 0 C2 1 2 1 2 1 Z " fill="#D882A6" transform="translate(411,870)"/>
<path d="M0 0 C2 1 2 1 2 1 Z " fill="#D984A5" transform="translate(392,870)"/>
<path d="M0 0 C2 1 2 1 2 1 Z " fill="#D881A7" transform="translate(387,870)"/>
<path d="M0 0 C2 1 2 1 2 1 Z " fill="#D882A7" transform="translate(368,870)"/>
<path d="M0 0 C2 1 2 1 2 1 Z " fill="#D782A5" transform="translate(348,870)"/>
<path d="M0 0 C2 1 2 1 2 1 Z " fill="#D584A7" transform="translate(337,870)"/>
<path d="M0 0 C2 1 2 1 2 1 Z " fill="#D281A5" transform="translate(299,868)"/>
<path d="M0 0 C2 1 2 1 2 1 Z " fill="#BD6590" transform="translate(749,863)"/>
<path d="" fill="#BB6191" transform="translate(0,0)"/>
<path d="M0 0 C2 1 2 1 2 1 Z " fill="#BA638E" transform="translate(761,859)"/>
<path d="M0 0 C2 1 2 1 2 1 Z " fill="#D884A8" transform="translate(234,845)"/>
<path d="M0 0 C2 1 2 1 2 1 Z " fill="#D785A6" transform="translate(206,823)"/>
<path d="M0 0 C2 1 2 1 2 1 Z " fill="#DC8CAD" transform="translate(176,783)"/>
<path d="" fill="#DF97B2" transform="translate(0,0)"/>
<path d="" fill="#BB5D8F" transform="translate(0,0)"/>
<path d="" fill="#F1C7D5" transform="translate(0,0)"/>
<path d="" fill="#CE7E9E" transform="translate(0,0)"/>
<path d="" fill="#EFC3D7" transform="translate(0,0)"/>
<path d="M0 0 C2 1 2 1 2 1 Z " fill="#CD819E" transform="translate(814,195)"/>
<path d="" fill="#EEC2D2" transform="translate(0,0)"/>
<path d="M0 0 C2 1 2 1 2 1 Z " fill="#E8C3D1" transform="translate(270,160)"/>
<path d="M0 0 C2 1 2 1 2 1 Z " fill="#ECC4D5" transform="translate(308,153)"/>
<path d="M0 0 C2 1 2 1 2 1 Z " fill="#DF95B2" transform="translate(671,152)"/>
<path d="M0 0 C2 1 2 1 2 1 Z " fill="#DF98B3" transform="translate(665,152)"/>
<path d="M0 0 C2 1 2 1 2 1 Z " fill="#E39FBB" transform="translate(588,152)"/>
<path d="M0 0 C2 1 2 1 2 1 Z " fill="#E3A0BA" transform="translate(580,152)"/>
<path d="M0 0 C2 1 2 1 2 1 Z " fill="#E6A1BC" transform="translate(573,152)"/>
<path d="M0 0 C2 1 2 1 2 1 Z " fill="#E6A4BE" transform="translate(558,152)"/>
<path d="M0 0 C2 1 2 1 2 1 Z " fill="#E6A9BF" transform="translate(521,152)"/>
<path d="M0 0 C2 1 2 1 2 1 Z " fill="#E9ABC4" transform="translate(502,152)"/>
<path d="M0 0 C2 1 2 1 2 1 Z " fill="#EAB0C5" transform="translate(476,152)"/>
<path d="M0 0 C2 1 2 1 2 1 Z " fill="#E8B3C6" transform="translate(449,152)"/>
<path d="M0 0 C2 1 2 1 2 1 Z " fill="#E9B3C8" transform="translate(446,152)"/>
<path d="M0 0 C2 1 2 1 2 1 Z " fill="#E9B3C8" transform="translate(439,152)"/>
<path d="M0 0 C2 1 2 1 2 1 Z " fill="#EABBCD" transform="translate(391,152)"/>
<path d="" fill="#DE9DB5" transform="translate(0,0)"/>
<path d="" fill="#010000" transform="translate(0,0)"/>
<path d="" fill="#000001" transform="translate(0,0)"/>
<path d="" fill="#080203" transform="translate(0,0)"/>
<path d="" fill="#3A2129" transform="translate(0,0)"/>
<path d="" fill="#3C2029" transform="translate(0,0)"/>
<path d="" fill="#000000" transform="translate(0,0)"/>
<path d="" fill="#311A21" transform="translate(0,0)"/>
<path d="" fill="#3D2228" transform="translate(0,0)"/>
<path d="" fill="#3C2529" transform="translate(0,0)"/>
<path d="" fill="#352026" transform="translate(0,0)"/>
<path d="" fill="#000000" transform="translate(0,0)"/>
<path d="" fill="#010001" transform="translate(0,0)"/>
<path d="" fill="#000000" transform="translate(0,0)"/>
<path d="" fill="#371F27" transform="translate(0,0)"/>
<path d="" fill="#0D0706" transform="translate(0,0)"/>
<path d="" fill="#0A0205" transform="translate(0,0)"/>
<path d="" fill="#090203" transform="translate(0,0)"/>
<path d="" fill="#42272F" transform="translate(0,0)"/>
<path d="" fill="#000000" transform="translate(0,0)"/>
<path d="" fill="#040101" transform="translate(0,0)"/>
<path d="" fill="#301722" transform="translate(0,0)"/>
<path d="" fill="#050200" transform="translate(0,0)"/>
<path d="" fill="#462A31" transform="translate(0,0)"/>
<path d="" fill="#42252D" transform="translate(0,0)"/>
<path d="" fill="#452932" transform="translate(0,0)"/>
<path d="" fill="#432730" transform="translate(0,0)"/>
<path d="" fill="#010000" transform="translate(0,0)"/>
<path d="" fill="#44242F" transform="translate(0,0)"/>
<path d="" fill="#000000" transform="translate(0,0)"/>
<path d="" fill="#080405" transform="translate(0,0)"/>
<path d="" fill="#44252F" transform="translate(0,0)"/>
<path d="" fill="#050102" transform="translate(0,0)"/>
<path d="" fill="#4B2B33" transform="translate(0,0)"/>
<path d="" fill="#000000" transform="translate(0,0)"/>
<path d="" fill="#4E2B38" transform="translate(0,0)"/>
<path d="" fill="#55323A" transform="translate(0,0)"/>
<path d="" fill="#472C34" transform="translate(0,0)"/>
<path d="" fill="#090606" transform="translate(0,0)"/>
<path d="" fill="#040101" transform="translate(0,0)"/>
<path d="" fill="#4F2E3C" transform="translate(0,0)"/>
<path d="" fill="#060203" transform="translate(0,0)"/>
<path d="" fill="#442631" transform="translate(0,0)"/>
<path d="" fill="#0A0606" transform="translate(0,0)"/>
<path d="" fill="#5D3C45" transform="translate(0,0)"/>
<path d="" fill="#0C0607" transform="translate(0,0)"/>
<path d="" fill="#14090C" transform="translate(0,0)"/>
<path d="" fill="#040000" transform="translate(0,0)"/>
<path d="" fill="#77495A" transform="translate(0,0)"/>
<path d="" fill="#784B59" transform="translate(0,0)"/>
<path d="" fill="#040101" transform="translate(0,0)"/>
<path d="" fill="#000000" transform="translate(0,0)"/>
<path d="" fill="#452C36" transform="translate(0,0)"/>
<path d="" fill="#14090D" transform="translate(0,0)"/>
<path d="" fill="#311A22" transform="translate(0,0)"/>
<path d="" fill="#080204" transform="translate(0,0)"/>
<path d="" fill="#824D61" transform="translate(0,0)"/>
<path d="" fill="#66384B" transform="translate(0,0)"/>
<path d="" fill="#875364" transform="translate(0,0)"/>
<path d="" fill="#170910" transform="translate(0,0)"/>
<path d="" fill="#23121A" transform="translate(0,0)"/>
<path d="" fill="#2C1C21" transform="translate(0,0)"/>
<path d="" fill="#502B39" transform="translate(0,0)"/>
<path d="" fill="#965A71" transform="translate(0,0)"/>
<path d="" fill="#13080C" transform="translate(0,0)"/>
<path d="" fill="#A2667C" transform="translate(0,0)"/>
<path d="" fill="#050201" transform="translate(0,0)"/>
<path d="" fill="#BC718E" transform="translate(0,0)"/>
<path d="" fill="#9E627A" transform="translate(0,0)"/>
<path d="" fill="#2D1723" transform="translate(0,0)"/>
<path d="" fill="#BE7691" transform="translate(0,0)"/>
<path d="" fill="#3E212D" transform="translate(0,0)"/>
<path d="" fill="#0F080B" transform="translate(0,0)"/>
<path d="" fill="#040202" transform="translate(0,0)"/>
<path d="" fill="#B7618B" transform="translate(0,0)"/>
<path d="" fill="#BB648B" transform="translate(0,0)"/>
<path d="" fill="#BA628C" transform="translate(0,0)"/>
<path d="" fill="#D4769E" transform="translate(0,0)"/>
<path d="" fill="#D183A3" transform="translate(0,0)"/>
<path d="" fill="#C16894" transform="translate(0,0)"/>
<path d="" fill="#C46C97" transform="translate(0,0)"/>
<path d="" fill="#C36996" transform="translate(0,0)"/>
<path d="" fill="#CC6D9C" transform="translate(0,0)"/>
<path d="" fill="#CE719C" transform="translate(0,0)"/>
<path d="" fill="#CE709A" transform="translate(0,0)"/>
<path d="" fill="#CD709A" transform="translate(0,0)"/>
<path d="" fill="#D2729D" transform="translate(0,0)"/>
<path d="" fill="#D3729E" transform="translate(0,0)"/>
<path d="" fill="#D3739D" transform="translate(0,0)"/>
<path d="" fill="#D177A1" transform="translate(0,0)"/>
<path d="" fill="#D77BA2" transform="translate(0,0)"/>
<path d="" fill="#D67AA2" transform="translate(0,0)"/>
<path d="" fill="#D679A2" transform="translate(0,0)"/>
<path d="" fill="#D780A4" transform="translate(0,0)"/>
<path d="" fill="#D881A5" transform="translate(0,0)"/>
<path d="" fill="#D680A5" transform="translate(0,0)"/>
<path d="" fill="#D883A5" transform="translate(0,0)"/>
<path d="" fill="#D686A4" transform="translate(0,0)"/>
<path d="" fill="#C26494" transform="translate(0,0)"/>
<path d="" fill="#BE6793" transform="translate(0,0)"/>
<path d="" fill="#C16893" transform="translate(0,0)"/>
<path d="" fill="#C36999" transform="translate(0,0)"/>
<path d="" fill="#D582A3" transform="translate(0,0)"/>
<path d="" fill="#D580A5" transform="translate(0,0)"/>
<path d="" fill="#D283A5" transform="translate(0,0)"/>
<path d="" fill="#422332" transform="translate(0,0)"/>
<path d="" fill="#BD648F" transform="translate(0,0)"/>
<path d="" fill="#D482A3" transform="translate(0,0)"/>
<path d="" fill="#D47FA4" transform="translate(0,0)"/>
<path d="" fill="#D37CA3" transform="translate(0,0)"/>
<path d="" fill="#D17EA4" transform="translate(0,0)"/>
<path d="" fill="#BD6091" transform="translate(0,0)"/>
<path d="" fill="#D17F9F" transform="translate(0,0)"/>
<path d="" fill="#B85F8A" transform="translate(0,0)"/>
<path d="" fill="#483036" transform="translate(0,0)"/>
<path d="" fill="#D884A6" transform="translate(0,0)"/>
<path d="" fill="#D183A4" transform="translate(0,0)"/>
<path d="" fill="#BA5F8F" transform="translate(0,0)"/>
<path d="" fill="#AC5A86" transform="translate(0,0)"/>
<path d="" fill="#BA5F8C" transform="translate(0,0)"/>
<path d="" fill="#B45C8A" transform="translate(0,0)"/>
<path d="" fill="#D485A5" transform="translate(0,0)"/>
<path d="" fill="#D582A8" transform="translate(0,0)"/>
<path d="" fill="#B45D8A" transform="translate(0,0)"/>
<path d="" fill="#D487A8" transform="translate(0,0)"/>
<path d="" fill="#B15985" transform="translate(0,0)"/>
<path d="" fill="#D480A1" transform="translate(0,0)"/>
<path d="" fill="#B35B87" transform="translate(0,0)"/>
<path d="" fill="#DA85A8" transform="translate(0,0)"/>
<path d="" fill="#D082A3" transform="translate(0,0)"/>
<path d="" fill="#AC5883" transform="translate(0,0)"/>
<path d="" fill="#B25B89" transform="translate(0,0)"/>
<path d="" fill="#D788A7" transform="translate(0,0)"/>
<path d="" fill="#D686A6" transform="translate(0,0)"/>
<path d="" fill="#D787A7" transform="translate(0,0)"/>
<path d="" fill="#DB89AA" transform="translate(0,0)"/>
<path d="" fill="#DB88A7" transform="translate(0,0)"/>
<path d="" fill="#B25A89" transform="translate(0,0)"/>
<path d="" fill="#14070C" transform="translate(0,0)"/>
<path d="" fill="#B15A88" transform="translate(0,0)"/>
<path d="" fill="#DC8BA8" transform="translate(0,0)"/>
<path d="" fill="#B35A8B" transform="translate(0,0)"/>
<path d="" fill="#D98CAE" transform="translate(0,0)"/>
<path d="" fill="#D78AA8" transform="translate(0,0)"/>
<path d="" fill="#D88BAA" transform="translate(0,0)"/>
<path d="" fill="#D689A8" transform="translate(0,0)"/>
<path d="" fill="#B75C8D" transform="translate(0,0)"/>
<path d="" fill="#D087A7" transform="translate(0,0)"/>
<path d="" fill="#DB8DAB" transform="translate(0,0)"/>
<path d="" fill="#DC91B0" transform="translate(0,0)"/>
<path d="" fill="#D98CAC" transform="translate(0,0)"/>
<path d="" fill="#6B3C52" transform="translate(0,0)"/>
<path d="" fill="#B35B8B" transform="translate(0,0)"/>
<path d="" fill="#B7598E" transform="translate(0,0)"/>
<path d="" fill="#E093AE" transform="translate(0,0)"/>
<path d="" fill="#DD91B0" transform="translate(0,0)"/>
<path d="" fill="#E098B5" transform="translate(0,0)"/>
<path d="" fill="#B8608F" transform="translate(0,0)"/>
<path d="" fill="#E196B7" transform="translate(0,0)"/>
<path d="" fill="#E198B4" transform="translate(0,0)"/>
<path d="" fill="#B95F8C" transform="translate(0,0)"/>
<path d="" fill="#E398B5" transform="translate(0,0)"/>
<path d="" fill="#E298B5" transform="translate(0,0)"/>
<path d="" fill="#E297B8" transform="translate(0,0)"/>
<path d="" fill="#B57F94" transform="translate(0,0)"/>
<path d="" fill="#E7A5BE" transform="translate(0,0)"/>
<path d="" fill="#351D26" transform="translate(0,0)"/>
<path d="" fill="#A05B77" transform="translate(0,0)"/>
<path d="" fill="#E9A8C1" transform="translate(0,0)"/>
<path d="" fill="#BD688C" transform="translate(0,0)"/>
<path d="" fill="#AC647F" transform="translate(0,0)"/>
<path d="" fill="#81656C" transform="translate(0,0)"/>
<path d="" fill="#97586F" transform="translate(0,0)"/>
<path d="" fill="#C97396" transform="translate(0,0)"/>
<path d="" fill="#422831" transform="translate(0,0)"/>
<path d="" fill="#331E25" transform="translate(0,0)"/>
<path d="" fill="#645052" transform="translate(0,0)"/>
<path d="" fill="#786467" transform="translate(0,0)"/>
<path d="" fill="#5B4B4F" transform="translate(0,0)"/>
<path d="" fill="#CD779A" transform="translate(0,0)"/>
<path d="" fill="#CC779A" transform="translate(0,0)"/>
<path d="" fill="#CBA3AF" transform="translate(0,0)"/>
<path d="" fill="#3F262E" transform="translate(0,0)"/>
<path d="" fill="#56494E" transform="translate(0,0)"/>
<path d="" fill="#F0BED2" transform="translate(0,0)"/>
<path d="" fill="#F0BFD0" transform="translate(0,0)"/>
<path d="" fill="#F0BFD0" transform="translate(0,0)"/>
<path d="" fill="#695A5C" transform="translate(0,0)"/>
<path d="" fill="#603C48" transform="translate(0,0)"/>
<path d="" fill="#F0C0D2" transform="translate(0,0)"/>
<path d="" fill="#F1C1D1" transform="translate(0,0)"/>
<path d="" fill="#EDBFD3" transform="translate(0,0)"/>
<path d="" fill="#714754" transform="translate(0,0)"/>
<path d="" fill="#F0C3D4" transform="translate(0,0)"/>
<path d="" fill="#D07E9D" transform="translate(0,0)"/>
<path d="" fill="#F0C4D3" transform="translate(0,0)"/>
<path d="" fill="#F1C3D3" transform="translate(0,0)"/>
<path d="" fill="#855465" transform="translate(0,0)"/>
<path d="" fill="#EFC4D2" transform="translate(0,0)"/>
<path d="" fill="#EEC4D4" transform="translate(0,0)"/>
<path d="" fill="#5F5153" transform="translate(0,0)"/>
<path d="" fill="#8F5A6B" transform="translate(0,0)"/>
<path d="" fill="#947E82" transform="translate(0,0)"/>
<path d="" fill="#F2C4D4" transform="translate(0,0)"/>
<path d="" fill="#B9708B" transform="translate(0,0)"/>
<path d="" fill="#855464" transform="translate(0,0)"/>
<path d="" fill="#7C6B71" transform="translate(0,0)"/>
<path d="" fill="#B66F88" transform="translate(0,0)"/>
<path d="" fill="#865466" transform="translate(0,0)"/>
<path d="" fill="#EFC7D4" transform="translate(0,0)"/>
<path d="" fill="#DCB7C6" transform="translate(0,0)"/>
<path d="" fill="#F1C6D8" transform="translate(0,0)"/>
<path d="" fill="#5A4E50" transform="translate(0,0)"/>
<path d="" fill="#3C272D" transform="translate(0,0)"/>
<path d="" fill="#F1CAD6" transform="translate(0,0)"/>
<path d="" fill="#322126" transform="translate(0,0)"/>
<path d="" fill="#A59095" transform="translate(0,0)"/>
<path d="" fill="#524A49" transform="translate(0,0)"/>
<path d="" fill="#EFC8D9" transform="translate(0,0)"/>
<path d="" fill="#CE7B9E" transform="translate(0,0)"/>
<path d="" fill="#2F1F24" transform="translate(0,0)"/>
<path d="" fill="#CB7E9F" transform="translate(0,0)"/>
<path d="" fill="#CC7B9E" transform="translate(0,0)"/>
<path d="" fill="#7B505D" transform="translate(0,0)"/>
<path d="" fill="#523942" transform="translate(0,0)"/>
<path d="" fill="#CF80A2" transform="translate(0,0)"/>
<path d="" fill="#CA7D9F" transform="translate(0,0)"/>
<path d="" fill="#B27189" transform="translate(0,0)"/>
<path d="" fill="#CE809E" transform="translate(0,0)"/>
<path d="" fill="#C97D9D" transform="translate(0,0)"/>
<path d="" fill="#EBC5D5" transform="translate(0,0)"/>
<path d="" fill="#452F37" transform="translate(0,0)"/>
<path d="" fill="#3C3636" transform="translate(0,0)"/>
<path d="" fill="#D382A2" transform="translate(0,0)"/>
<path d="" fill="#CB7F9C" transform="translate(0,0)"/>
<path d="" fill="#EDC6D6" transform="translate(0,0)"/>
<path d="" fill="#D47EA1" transform="translate(0,0)"/>
<path d="" fill="#EEC6D5" transform="translate(0,0)"/>
<path d="" fill="#D07D99" transform="translate(0,0)"/>
<path d="" fill="#CF80A0" transform="translate(0,0)"/>
<path d="" fill="#1A1113" transform="translate(0,0)"/>
<path d="" fill="#EEC5D4" transform="translate(0,0)"/>
<path d="" fill="#CD809F" transform="translate(0,0)"/>
<path d="" fill="#EDC2D3" transform="translate(0,0)"/>
<path d="" fill="#79525D" transform="translate(0,0)"/>
<path d="" fill="#D081A0" transform="translate(0,0)"/>
<path d="" fill="#CF819F" transform="translate(0,0)"/>
<path d="" fill="#EFC9D8" transform="translate(0,0)"/>
<path d="" fill="#D180A0" transform="translate(0,0)"/>
<path d="" fill="#EDC4D2" transform="translate(0,0)"/>
<path d="" fill="#271A1F" transform="translate(0,0)"/>
<path d="" fill="#C87B9C" transform="translate(0,0)"/>
<path d="" fill="#EBC4D4" transform="translate(0,0)"/>
<path d="" fill="#EBC6D5" transform="translate(0,0)"/>
<path d="" fill="#EDC6D6" transform="translate(0,0)"/>
<path d="" fill="#EEC4D6" transform="translate(0,0)"/>
<path d="" fill="#C57D99" transform="translate(0,0)"/>
<path d="" fill="#CDB1BA" transform="translate(0,0)"/>
<path d="" fill="#D183A2" transform="translate(0,0)"/>
<path d="" fill="#563A42" transform="translate(0,0)"/>
<path d="" fill="#D083A1" transform="translate(0,0)"/>
<path d="" fill="#D283A4" transform="translate(0,0)"/>
<path d="" fill="#D483A2" transform="translate(0,0)"/>
<path d="" fill="#EAC4D0" transform="translate(0,0)"/>
<path d="" fill="#E7BDCF" transform="translate(0,0)"/>
<path d="" fill="#D589A8" transform="translate(0,0)"/>
<path d="" fill="#EBC4D2" transform="translate(0,0)"/>
<path d="" fill="#D58CA8" transform="translate(0,0)"/>
<path d="" fill="#EBC2D2" transform="translate(0,0)"/>
<path d="" fill="#E6C3D1" transform="translate(0,0)"/>
<path d="" fill="#D78BAA" transform="translate(0,0)"/>
<path d="" fill="#D38AA8" transform="translate(0,0)"/>
<path d="" fill="#28191E" transform="translate(0,0)"/>
<path d="" fill="#EAC4D3" transform="translate(0,0)"/>
<path d="" fill="#D68EAC" transform="translate(0,0)"/>
<path d="" fill="#D98FAC" transform="translate(0,0)"/>
<path d="" fill="#ECC5D3" transform="translate(0,0)"/>
<path d="" fill="#D88EAD" transform="translate(0,0)"/>
<path d="" fill="#DC8FAF" transform="translate(0,0)"/>
<path d="" fill="#DD93B0" transform="translate(0,0)"/>
<path d="" fill="#EDC5D7" transform="translate(0,0)"/>
<path d="" fill="#E6C1D1" transform="translate(0,0)"/>
<path d="" fill="#DB94B0" transform="translate(0,0)"/>
<path d="" fill="#DD94B0" transform="translate(0,0)"/>
<path d="" fill="#DC93B0" transform="translate(0,0)"/>
<path d="" fill="#DF95B1" transform="translate(0,0)"/>
<path d="" fill="#DE93B1" transform="translate(0,0)"/>
<path d="" fill="#DF97B4" transform="translate(0,0)"/>
<path d="" fill="#E099B4" transform="translate(0,0)"/>
<path d="" fill="#E197B6" transform="translate(0,0)"/>
<path d="" fill="#E39AB5" transform="translate(0,0)"/>
<path d="" fill="#E099B6" transform="translate(0,0)"/>
<path d="" fill="#E29BB8" transform="translate(0,0)"/>
<path d="" fill="#E19ABB" transform="translate(0,0)"/>
<path d="" fill="#E6A0BA" transform="translate(0,0)"/>
<path d="" fill="#E49FB9" transform="translate(0,0)"/>
<path d="" fill="#E6A0BA" transform="translate(0,0)"/>
<path d="" fill="#E5A3BB" transform="translate(0,0)"/>
<path d="" fill="#E4A2BA" transform="translate(0,0)"/>
<path d="" fill="#E5A2BD" transform="translate(0,0)"/>
<path d="" fill="#E6A2BD" transform="translate(0,0)"/>
<path d="" fill="#E59FBD" transform="translate(0,0)"/>
<path d="" fill="#EAA6BE" transform="translate(0,0)"/>
<path d="" fill="#EAA7BE" transform="translate(0,0)"/>
<path d="" fill="#E7A7C0" transform="translate(0,0)"/>
<path d="" fill="#E6ACC0" transform="translate(0,0)"/>
<path d="" fill="#E8AFC6" transform="translate(0,0)"/>
<path d="" fill="#E8AFC6" transform="translate(0,0)"/>
<path d="" fill="#EAAEC7" transform="translate(0,0)"/>
<path d="" fill="#EBB3C8" transform="translate(0,0)"/>
<path d="" fill="#EBB0C7" transform="translate(0,0)"/>
<path d="" fill="#E8B3C8" transform="translate(0,0)"/>
<path d="" fill="#EBB6CA" transform="translate(0,0)"/>
<path d="" fill="#ECB8CC" transform="translate(0,0)"/>
<path d="" fill="#EAB8CC" transform="translate(0,0)"/>
<path d="" fill="#EBBDCF" transform="translate(0,0)"/>
<path d="" fill="#2F2122" transform="translate(0,0)"/>
<path d="" fill="#0C0F0E" transform="translate(0,0)"/>
<path d="" fill="#494244" transform="translate(0,0)"/>
<path d="" fill="#3B282C" transform="translate(0,0)"/>
<path d="" fill="#C59BA9" transform="translate(0,0)"/>
<path d="" fill="#71666A" transform="translate(0,0)"/>
<path d="" fill="#4E4646" transform="translate(0,0)"/>
<path d="" fill="#0F0607" transform="translate(0,0)"/>
<path d="" fill="#1A0C11" transform="translate(0,0)"/>
<path d="" fill="#6D6265" transform="translate(0,0)"/>
<path d="" fill="#1F1D1B" transform="translate(0,0)"/>
<path d="" fill="#191615" transform="translate(0,0)"/>
<path d="" fill="#040001" transform="translate(0,0)"/>
<path d="" fill="#180F14" transform="translate(0,0)"/>
<path d="" fill="#1A1013" transform="translate(0,0)"/>
<path d="" fill="#80676E" transform="translate(0,0)"/>
<path d="" fill="#685A5D" transform="translate(0,0)"/>
<path d="" fill="#7A6268" transform="translate(0,0)"/>
<path d="" fill="#000000" transform="translate(0,0)"/>
<path d="" fill="#070306" transform="translate(0,0)"/>
<path d="" fill="#000000" transform="translate(0,0)"/>
<path d="" fill="#716263" transform="translate(0,0)"/>
<path d="" fill="#715B60" transform="translate(0,0)"/>
<path d="" fill="#080405" transform="translate(0,0)"/>
<path d="" fill="#090406" transform="translate(0,0)"/>
<path d="" fill="#5F454D" transform="translate(0,0)"/>
<path d="" fill="#6A5A5D" transform="translate(0,0)"/>
<path d="" fill="#090707" transform="translate(0,0)"/>
<path d="" fill="#190F14" transform="translate(0,0)"/>
<path d="" fill="#655358" transform="translate(0,0)"/>
<path d="" fill="#252221" transform="translate(0,0)"/>
<path d="" fill="#5F4E55" transform="translate(0,0)"/>
<path d="" fill="#483F41" transform="translate(0,0)"/>
<path d="" fill="#000000" transform="translate(0,0)"/>
<path d="" fill="#10090B" transform="translate(0,0)"/>
<path d="" fill="#3D2A31" transform="translate(0,0)"/>
<path d="" fill="#563D44" transform="translate(0,0)"/>
<path d="" fill="#010000" transform="translate(0,0)"/>
<path d="" fill="#000000" transform="translate(0,0)"/>
<path d="" fill="#483038" transform="translate(0,0)"/>
<path d="" fill="#150C0F" transform="translate(0,0)"/>
<path d="" fill="#332325" transform="translate(0,0)"/>
<path d="" fill="#030100" transform="translate(0,0)"/>
<path d="" fill="#040002" transform="translate(0,0)"/>
<path d="" fill="#422E34" transform="translate(0,0)"/>
<path d="" fill="#503B42" transform="translate(0,0)"/>
<path d="" fill="#4E4647" transform="translate(0,0)"/>
<path d="" fill="#000000" transform="translate(0,0)"/>
<path d="" fill="#524648" transform="translate(0,0)"/>
</svg>
